<svg xmlns="http://www.w3.org/2000/svg" xmlns:xlink="http://www.w3.org/1999/xlink" width="384" zoomAndPan="magnify" viewBox="0 0 288 330.749987" height="441" preserveAspectRatio="xMidYMid meet" version="1.0"><defs><clipPath id="784aa15cd2"><path d="M 43 58.347656 L 249.683594 58.347656 L 249.683594 298.917969 L 43 298.917969 Z M 43 58.347656 " clip-rule="nonzero"/></clipPath><clipPath id="15355bf1fb"><path d="M 0.109375 0 L 287 0 L 287 330.5 L 0.109375 330.5 Z M 0.109375 0 " clip-rule="nonzero"/></clipPath></defs><g clip-path="url(#784aa15cd2)"><path fill="#391b01" d="M 43.242188 261.785156 C 43.210938 255.847656 43.539062 249.90625 43.355469 243.96875 C 43.332031 243.160156 43.601562 242.78125 44.355469 242.496094 C 47.363281 241.375 50.328125 240.152344 53.34375 239.050781 C 54.335938 238.6875 54.789062 238.226562 54.75 237.105469 C 54.667969 234.804688 54.765625 232.503906 54.707031 230.203125 C 54.683594 229.386719 54.953125 229.070312 55.722656 228.800781 C 65.4375 225.386719 75.132812 221.9375 84.835938 218.476562 C 85.613281 218.199219 86.328125 218.289062 87.089844 218.460938 C 91.144531 219.398438 95.214844 220.285156 99.261719 221.285156 C 100.371094 221.554688 100.277344 221.230469 100.140625 220.351562 C 99.710938 217.605469 98.46875 216.183594 95.4375 215.699219 C 90.34375 214.882812 85.296875 213.675781 80.457031 211.75 C 75.316406 209.703125 71.308594 206.410156 68.863281 201.371094 C 68.671875 200.980469 68.453125 200.640625 68.046875 200.410156 C 65.175781 198.839844 63.738281 196.222656 63.0625 193.183594 C 62.183594 189.214844 62.199219 185.191406 62.953125 181.1875 C 63.507812 178.28125 64.929688 175.8125 67.0625 173.765625 C 67.625 173.226562 67.894531 172.6875 67.878906 171.894531 C 67.832031 169.261719 68.515625 166.777344 69.492188 164.363281 C 73.1875 155.210938 77.125 146.164062 80.367188 136.839844 C 81.464844 133.667969 82.589844 130.515625 84.289062 127.597656 C 88.390625 120.574219 94.863281 116.703125 102.117188 113.5625 C 106.449219 111.6875 110.789062 109.902344 115.265625 108.429688 C 115.921875 108.214844 115.90625 107.894531 115.636719 107.363281 C 114.160156 104.476562 113.804688 101.53125 115.320312 98.535156 C 115.652344 97.882812 115.199219 97.621094 114.851562 97.21875 C 112.859375 94.949219 111.25 92.179688 112.503906 89.363281 C 113.929688 86.179688 113.972656 82.785156 115.027344 79.59375 C 118.066406 70.390625 124.277344 64.464844 133.488281 61.625 C 134.578125 61.289062 135.671875 61.105469 136.433594 60.058594 C 136.910156 59.394531 137.8125 59.164062 138.613281 59.042969 C 142.375 58.441406 146.144531 58.457031 149.914062 59.019531 C 150.675781 59.132812 151.484375 59.347656 152.007812 59.902344 C 153.132812 61.097656 154.625 61.410156 156.070312 61.859375 C 166.941406 65.1875 174.128906 73.992188 175.207031 85.300781 C 175.261719 85.832031 175.328125 86.347656 175.621094 86.808594 C 177.714844 90.066406 177.199219 93.203125 175.089844 96.191406 C 174.398438 97.167969 174.167969 97.929688 174.707031 99.128906 C 175.882812 101.769531 175.429688 104.40625 174.011719 106.839844 C 173.4375 107.832031 173.746094 108.148438 174.652344 108.421875 C 178.039062 109.453125 181.421875 110.507812 184.808594 111.554688 C 185.441406 111.746094 186.109375 111.785156 186.308594 112.648438 C 186.441406 113.203125 187.101562 113.132812 187.523438 113.261719 C 191.5625 114.546875 195.441406 116.140625 198.921875 118.617188 C 203.605469 121.957031 207.375 126.183594 209.269531 131.574219 C 214.316406 145.988281 220.085938 160.144531 224.1875 174.878906 C 224.835938 177.195312 225.234375 179.550781 225.140625 181.972656 C 225.125 182.414062 225.15625 182.84375 225.464844 183.1875 C 229.667969 187.96875 229.75 193.652344 228.988281 199.484375 C 228.535156 202.949219 227.359375 206.210938 224.480469 208.34375 C 222.558594 209.765625 221.125 211.40625 219.847656 213.398438 C 218.023438 216.238281 215.261719 218.152344 212.269531 219.628906 C 205.699219 222.882812 199.21875 226.300781 192.824219 229.886719 C 192.125 230.277344 191.71875 230.625 191.832031 231.515625 C 192.0625 233.355469 191.855469 235.15625 190.933594 236.8125 C 190.449219 237.6875 191.054688 237.75 191.648438 237.894531 C 199.613281 239.796875 207.574219 241.695312 215.53125 243.613281 C 226.566406 246.269531 237.585938 248.945312 248.625 251.578125 C 249.59375 251.808594 249.894531 252.175781 249.878906 253.199219 C 249.792969 257.65625 249.792969 262.117188 249.832031 266.574219 C 249.839844 267.621094 249.578125 268.140625 248.53125 268.582031 C 240.832031 271.773438 233.167969 275.042969 225.503906 278.320312 C 224.410156 278.792969 223.371094 279.160156 222.203125 278.660156 C 221.511719 278.367188 221.125 278.546875 221.125 279.375 C 221.125 279.960938 220.972656 280.429688 220.292969 280.714844 C 211.101562 284.5625 201.914062 288.417969 192.757812 292.339844 C 191.210938 293.003906 189.808594 293.066406 188.210938 292.550781 C 184.378906 291.316406 180.492188 290.269531 176.644531 289.09375 C 175.882812 288.863281 175.269531 289 174.589844 289.285156 C 167.210938 292.378906 159.824219 295.449219 152.453125 298.566406 C 151.46875 298.980469 150.5625 299.011719 149.546875 298.71875 C 128.402344 292.695312 107.257812 286.6875 86.105469 280.691406 C 72.554688 276.851562 59 273.050781 45.449219 269.203125 C 42.839844 268.464844 43.355469 269.035156 43.277344 266.378906 C 43.210938 264.855469 43.242188 263.316406 43.242188 261.785156 Z M 111.851562 217.207031 C 113.828125 218.191406 115.597656 218.90625 117.207031 219.898438 C 120.628906 222.007812 124.140625 221.652344 127.722656 220.554688 C 128.285156 220.375 128.753906 220.113281 128.972656 219.492188 C 129.847656 217.015625 129.046875 215.492188 126.476562 215.574219 C 122.953125 215.691406 120.46875 214.042969 118.207031 211.679688 C 117.128906 210.558594 117.136719 209.859375 118.476562 209.121094 C 121.730469 207.320312 125.277344 206.964844 128.253906 209.890625 C 129.71875 211.328125 131.085938 212.898438 132.894531 213.953125 C 134.3125 214.773438 135.386719 214.160156 135.402344 212.527344 C 135.417969 211.089844 134.648438 209.996094 133.703125 208.996094 C 131.101562 206.234375 127.664062 204.886719 124.332031 203.285156 C 120.589844 201.496094 116.789062 200.546875 112.660156 201.125 C 111.128906 201.339844 109.757812 201.433594 108.132812 200.832031 C 104.003906 199.300781 99.785156 198.039062 96.070312 195.5625 C 93.113281 193.59375 90.675781 191.007812 87.761719 188.753906 C 90.183594 188.84375 92.316406 189.628906 94.730469 190.183594 C 94.453125 189.875 94.386719 189.738281 94.269531 189.675781 C 88.722656 186.707031 82.9375 185.757812 76.988281 188.199219 C 72.023438 190.238281 71.917969 189.828125 74.671875 195.070312 C 75.664062 196.953125 77.273438 198.378906 78.726562 199.917969 C 76.109375 198.554688 73.808594 196.816406 71.902344 194.554688 C 72.449219 196.039062 73.117188 197.394531 74.101562 198.59375 C 77.003906 202.125 80.8125 204.394531 84.890625 206.265625 C 90.300781 208.75 95.945312 210.566406 101.632812 212.28125 C 102.703125 212.605469 103.203125 213.058594 103.21875 214.226562 C 103.25 216.492188 103.757812 218.707031 104.480469 220.835938 C 105.425781 223.617188 106.542969 226.316406 109.15625 228.046875 C 110.964844 229.238281 112.851562 230.261719 114.804688 231.1875 C 116 231.75 117.8125 231.339844 118.476562 230.410156 C 118.785156 229.980469 119.023438 229.554688 118.191406 229.433594 C 114.976562 228.972656 112.804688 226.679688 110.367188 224.878906 C 109.925781 224.554688 109.542969 224.117188 109.828125 223.40625 C 112.4375 224.683594 114.9375 225.984375 117.507812 227.148438 C 119.691406 228.140625 122.515625 226.945312 123.109375 224.9375 C 123.292969 224.324219 123.222656 224.085938 122.507812 224.09375 C 121.367188 224.117188 120.175781 224.207031 119.136719 223.601562 C 117.445312 222.609375 115.75 221.605469 114.25 220.328125 C 113.328125 219.539062 112.382812 218.753906 111.851562 217.207031 Z M 169.21875 222.769531 C 169.359375 223.476562 169.128906 223.800781 168.996094 224.144531 C 168.050781 226.714844 166.71875 229.101562 165.574219 231.578125 C 164.519531 233.847656 164.726562 236.164062 165.535156 238.433594 C 165.980469 239.6875 167.132812 240.203125 168.597656 239.972656 C 169.921875 239.757812 169.433594 238.65625 169.566406 237.902344 C 169.742188 236.871094 169.496094 235.78125 169.996094 234.796875 C 171.390625 232.0625 172.757812 229.316406 174.535156 226.808594 C 174.820312 226.402344 175.035156 225.871094 175.613281 225.738281 C 175.921875 226.085938 175.652344 226.386719 175.558594 226.6875 C 174.898438 228.839844 174.089844 230.941406 173.121094 232.980469 C 172.234375 234.832031 171.726562 236.734375 172.011719 238.8125 C 172.21875 240.335938 172.96875 241.136719 174.320312 241.289062 C 175.890625 241.472656 176.335938 240.464844 176.550781 239.25 C 177.199219 235.542969 179.015625 232.324219 180.800781 229.101562 C 181.101562 228.5625 181.375 227.957031 182.222656 227.617188 C 181.863281 229.816406 181.128906 231.679688 180.382812 233.535156 C 179.753906 235.09375 179.183594 236.671875 179.238281 238.386719 C 179.261719 239.203125 179.183594 240.113281 180.230469 240.382812 C 181.316406 240.660156 182.355469 240.542969 183.039062 239.503906 C 183.347656 239.027344 183.578125 238.488281 183.808594 237.964844 C 184.691406 235.949219 185.554688 233.917969 186.433594 231.902344 C 186.585938 231.546875 186.625 230.957031 187.285156 231.324219 C 188.15625 231.808594 188.394531 231.203125 188.570312 230.5625 C 188.894531 229.402344 188.539062 228.371094 187.824219 227.46875 C 187.21875 226.707031 186.539062 226.007812 185.878906 225.261719 C 186.710938 224.792969 187.472656 224.386719 188.210938 223.953125 C 194.242188 220.398438 200.191406 216.730469 205.460938 212.074219 C 209.285156 208.695312 212.347656 204.773438 214.148438 199.925781 C 214.523438 198.902344 214.425781 198.339844 213.453125 197.699219 C 207.953125 194.0625 201.019531 194.40625 195.472656 198.625 C 191.71875 201.480469 188.988281 205.25 186.078125 208.875 C 183.222656 212.429688 180.246094 215.859375 176.644531 218.699219 C 175.566406 219.546875 174.460938 219.976562 173.074219 219.84375 C 170.972656 219.644531 168.867188 219.574219 166.765625 219.4375 C 165.496094 219.351562 164.535156 219.867188 163.839844 220.90625 C 162.425781 223.015625 161.117188 225.199219 159.578125 227.214844 C 157.792969 229.570312 157.632812 232.003906 158.710938 234.632812 C 158.800781 234.855469 158.800781 235.125 158.933594 235.3125 C 159.570312 236.1875 159.410156 237.867188 161.519531 237.179688 C 162.585938 236.835938 162.996094 236.558594 162.894531 235.601562 C 162.542969 232.234375 163.855469 229.472656 165.859375 226.902344 C 166.894531 225.585938 167.734375 224.078125 169.21875 222.769531 Z M 68.679688 248.382812 C 68.816406 248.722656 69.125 248.714844 69.402344 248.785156 C 83.097656 252.414062 96.738281 256.261719 110.195312 260.703125 C 110.703125 260.871094 111.550781 260.933594 111.28125 261.71875 C 111.035156 262.441406 110.390625 261.863281 109.964844 261.757812 C 95.484375 257.925781 81.011719 254.070312 66.539062 250.214844 C 64.285156 249.613281 64.039062 249.667969 62.054688 251.113281 C 62.714844 251.316406 63.300781 251.5 63.890625 251.667969 C 71.816406 253.898438 79.742188 256.125 87.667969 258.363281 C 100.148438 261.886719 112.550781 265.6875 125.101562 268.980469 C 126.4375 269.335938 127.761719 269.757812 129.101562 270.144531 C 129.703125 270.3125 129.824219 270.765625 129.726562 271.265625 C 129.585938 271.945312 129.117188 271.488281 128.832031 271.414062 C 117.542969 268.394531 106.257812 265.402344 94.992188 262.316406 C 82.851562 258.992188 70.734375 255.617188 58.628906 252.160156 C 56.796875 251.636719 55.621094 252.515625 53.929688 253.292969 C 54.90625 253.59375 55.535156 253.808594 56.175781 253.984375 C 61.246094 255.402344 66.324219 256.792969 71.394531 258.21875 C 87.527344 262.757812 103.65625 267.304688 119.785156 271.84375 C 131.394531 275.113281 143.050781 278.222656 154.585938 281.746094 C 157.347656 282.59375 159.148438 281.667969 161.554688 280.53125 C 160.617188 280.214844 160.003906 279.960938 159.355469 279.785156 C 151 277.484375 142.644531 275.191406 134.296875 272.875 C 133.679688 272.707031 132.546875 272.757812 132.878906 271.703125 C 133.171875 270.78125 134.058594 271.503906 134.558594 271.644531 C 144.011719 274.25 153.523438 276.667969 162.894531 279.585938 C 163.355469 279.730469 163.75 279.914062 164.257812 279.660156 C 165.464844 279.054688 166.710938 278.515625 168.089844 277.882812 C 166.132812 276.890625 164.117188 276.644531 162.25 275.960938 C 161.710938 275.769531 161.1875 275.597656 161.441406 274.898438 C 161.679688 274.230469 162.203125 274.707031 162.527344 274.789062 C 164.980469 275.421875 167.425781 276.089844 169.875 276.789062 C 170.351562 276.929688 170.789062 277.03125 171.265625 276.828125 C 172.613281 276.269531 173.960938 275.707031 175.320312 275.136719 C 175.105469 274.757812 174.8125 274.738281 174.535156 274.652344 C 169.820312 273.207031 165.035156 271.996094 160.265625 270.757812 C 145.945312 267.027344 131.640625 263.234375 117.3125 259.546875 C 109.941406 257.648438 102.519531 255.953125 95.132812 254.101562 C 87.144531 252.09375 79.179688 250.015625 71.210938 247.953125 C 70.292969 247.714844 69.425781 247.644531 68.679688 248.382812 Z M 85.8125 153.828125 C 84.035156 153.441406 82.6875 152.660156 81.367188 151.8125 C 81.035156 151.597656 80.726562 151.121094 80.390625 151.835938 C 79.125 154.496094 77.84375 157.152344 76.519531 159.914062 C 77.472656 159.820312 78.273438 159.722656 79.074219 159.683594 C 79.933594 159.644531 80.796875 159.644531 81.660156 159.660156 C 82.429688 159.675781 83.195312 159.722656 84.183594 160.089844 C 78.949219 161.53125 75.664062 164.667969 73.847656 169.640625 C 79.890625 167.917969 85.75 166.800781 92.136719 169.046875 C 90.359375 166.285156 88.414062 164.355469 85.667969 162.890625 C 90.539062 162.722656 94.253906 164.570312 97.46875 167.691406 C 96.148438 163.070312 92.96875 159.890625 89.199219 156.738281 C 91.652344 157.320312 93.746094 157.8125 95.921875 159.007812 C 94.308594 155.542969 92.191406 152.757812 90.5 149.710938 C 93.269531 151.21875 96.117188 152.488281 98.65625 154.644531 C 98.46875 150.304688 97.183594 146.386719 96.132812 142.078125 C 96.5625 142.464844 96.699219 142.585938 96.839844 142.703125 C 98.132812 143.832031 98.109375 143.824219 98.570312 142.1875 C 99.179688 140.03125 99.203125 137.816406 99.15625 135.339844 C 99.402344 135.691406 99.5 135.785156 99.546875 135.90625 C 102.242188 142.410156 103.933594 149.15625 104.773438 156.144531 C 105.347656 160.992188 105.742188 165.871094 106.742188 170.65625 C 107.179688 172.734375 107.886719 174.71875 108.894531 176.59375 C 109.019531 176.050781 109.050781 175.535156 109.011719 175.019531 C 108.425781 167.140625 108.28125 159.253906 107.488281 151.375 C 106.417969 140.714844 106.179688 129.960938 105.394531 119.257812 C 105.324219 118.28125 105.125 117.980469 104.164062 118.363281 C 98.976562 120.425781 94.269531 123.171875 90.574219 127.46875 C 87.335938 131.230469 86.3125 135.371094 88.023438 140.140625 C 88.867188 142.5 90.097656 144.601562 91.914062 146.832031 C 89.121094 145.601562 86.644531 144.617188 84.589844 142.855469 C 83.953125 142.308594 83.71875 142.5 83.582031 143.1875 C 83.511719 143.515625 83.445312 143.839844 83.398438 144.171875 C 82.949219 147.617188 83.757812 150.78125 85.8125 153.828125 Z M 190.910156 172.449219 C 194.734375 168.738281 199.066406 167.292969 203.960938 167.386719 C 208.660156 167.46875 213.339844 167.683594 217.449219 170.53125 C 215.417969 165.792969 211.523438 163.054688 206.90625 160.699219 C 208.53125 160.566406 209.808594 160.675781 211.09375 160.746094 C 212.363281 160.8125 213.546875 161.253906 215.023438 161.769531 C 213.492188 158.34375 212.070312 155.257812 210.730469 152.136719 C 210.261719 151.035156 209.984375 150.632812 208.851562 151.628906 C 206.859375 153.375 203.503906 155.066406 201.882812 155.328125 C 202.429688 154.898438 202.773438 154.703125 203.019531 154.421875 C 205.921875 151.050781 208.128906 147.355469 207.382812 142.703125 C 206.421875 136.675781 204.160156 131.183594 199.949219 126.644531 C 196.457031 122.875 192.003906 120.558594 187.339844 118.574219 C 186.195312 118.078125 185.816406 118.148438 185.730469 119.519531 C 185.15625 128.699219 184.402344 137.871094 183.921875 147.050781 C 183.675781 151.8125 183.878906 156.597656 183.878906 161.144531 C 184.445312 159.492188 184.902344 157.503906 185.355469 155.527344 C 185.824219 153.472656 186.308594 151.425781 186.832031 149.386719 C 187.339844 147.394531 187.855469 145.402344 188.464844 143.433594 C 189.078125 141.417969 189.734375 139.410156 190.503906 137.453125 C 191.234375 135.601562 191.996094 133.738281 193.21875 132.105469 C 192.242188 136.785156 192.566406 141.523438 192.148438 146.472656 C 194.035156 144.832031 195.703125 143.378906 197.589844 141.730469 C 196.550781 145.601562 195.378906 149.089844 193.910156 152.6875 C 195.964844 151.628906 197.773438 150.695312 199.851562 149.617188 C 197.242188 153.21875 195.179688 156.757812 193.789062 160.851562 C 194.886719 160.507812 195.742188 160.222656 196.605469 159.96875 C 197.472656 159.714844 198.351562 159.507812 199.21875 159.277344 C 194.726562 162.460938 192.035156 166.683594 190.910156 172.449219 Z M 201.359375 253.753906 C 201.359375 253.644531 201.367188 253.546875 201.367188 253.4375 C 197.550781 252.539062 193.734375 251.652344 189.925781 250.730469 C 188.964844 250.492188 188.777344 251.007812 188.933594 251.707031 C 189.5625 254.601562 188.203125 256.046875 185.507812 256.578125 C 185.460938 256.585938 185.417969 256.601562 185.378906 256.632812 C 183.15625 257.976562 180.890625 257.855469 178.390625 257.277344 C 151.339844 251 124.261719 244.828125 97.191406 238.613281 C 86.042969 236.050781 74.886719 233.496094 63.761719 230.824219 C 61.777344 230.347656 60.390625 231.257812 58.796875 231.941406 C 58.96875 232.273438 59.199219 232.332031 59.4375 232.378906 C 61.914062 232.925781 64.390625 233.449219 66.863281 234.027344 C 81.597656 237.449219 96.324219 240.875 111.050781 244.3125 C 124.007812 247.335938 136.957031 250.390625 149.914062 253.414062 C 160.402344 255.863281 170.890625 258.292969 181.382812 260.726562 C 182.222656 260.917969 183.070312 261.101562 183.921875 260.757812 C 189.726562 258.417969 195.542969 256.085938 201.359375 253.753906 Z M 118.675781 98.628906 C 118.597656 102.308594 119.453125 106.714844 120.707031 109.855469 C 121.699219 112.332031 123.414062 114.003906 125.9375 114.808594 C 134.632812 117.601562 143.367188 117.535156 152.117188 115.117188 C 154.667969 114.410156 157.148438 113.472656 159.386719 111.992188 C 154.53125 112.847656 149.660156 113.292969 144.746094 113.234375 C 150.167969 112.125 155.539062 110.886719 160.511719 108.277344 C 153.675781 109.515625 146.8125 109.515625 139.917969 109.132812 C 146.40625 108.292969 152.90625 107.515625 158.941406 104.722656 C 158.386719 104.699219 157.839844 104.722656 157.292969 104.808594 C 148.644531 106.144531 140.003906 106.128906 131.425781 104.34375 C 126.847656 103.382812 122.339844 102.097656 118.675781 98.628906 Z M 154.738281 283.316406 C 153.960938 283.046875 153.570312 282.886719 153.160156 282.769531 C 139.289062 278.890625 125.410156 275.011719 111.527344 271.160156 C 100.964844 268.226562 90.390625 265.347656 79.835938 262.386719 C 70.941406 259.886719 62.03125 257.433594 53.136719 254.953125 C 50.488281 254.214844 48.851562 255.601562 46.632812 256.484375 C 46.988281 256.707031 47.085938 256.808594 47.210938 256.839844 C 67.03125 262.378906 86.851562 267.925781 106.679688 273.453125 C 120.191406 277.214844 133.742188 280.847656 147.199219 284.769531 C 150.085938 285.609375 152.125 284.5 154.738281 283.316406 Z M 123.96875 78.253906 C 123.90625 78.53125 123.847656 78.800781 123.792969 79.078125 C 122.628906 84.996094 122.722656 90.878906 124.214844 96.734375 C 124.5625 98.105469 125.285156 98.96875 126.640625 99.492188 C 127.808594 99.945312 128.164062 99.859375 128.15625 98.496094 C 128.125 94.644531 128.554688 90.84375 130.070312 87.242188 C 130.609375 85.964844 131.234375 84.734375 132.347656 83.523438 C 132.570312 88.789062 133.09375 93.734375 133.964844 98.652344 C 134.339844 87.640625 135.433594 76.675781 135.804688 65.675781 C 134.441406 67.644531 134.15625 69.96875 133.324219 72.097656 C 133.316406 70.691406 133.410156 69.304688 133.503906 67.921875 C 133.617188 66.210938 133.59375 66.195312 132.0625 66.828125 C 122.746094 70.644531 116.527344 81.507812 117.929688 91.550781 C 118.152344 93.171875 119.214844 94.335938 120.300781 95.511719 C 119.890625 89.410156 120.570312 83.578125 123.96875 78.253906 Z M 136.75 100.191406 C 137.203125 99.828125 137.164062 99.484375 137.210938 99.175781 C 137.703125 95.429688 138.132812 91.664062 138.710938 87.925781 C 139.113281 85.324219 139.660156 82.730469 140.972656 80.394531 C 141.667969 79.167969 142.605469 78.207031 144.113281 78.222656 C 145.628906 78.238281 146.558594 79.222656 147.191406 80.476562 C 147.613281 81.332031 147.96875 82.230469 148.246094 83.148438 C 149.199219 86.316406 149.746094 89.582031 150.175781 92.859375 C 150.414062 94.667969 150.675781 96.472656 150.96875 98.574219 C 151.183594 98.183594 151.253906 98.105469 151.261719 98.027344 C 151.9375 86.863281 151.578125 75.707031 151.070312 64.550781 C 151.03125 63.765625 150.628906 63.488281 149.953125 63.320312 C 146.40625 62.433594 142.851562 62.402344 139.273438 63.136719 C 138.105469 63.375 137.519531 63.882812 137.410156 65.210938 C 136.605469 75.105469 136.28125 85.015625 136.425781 94.941406 C 136.441406 96.644531 136.625 98.335938 136.75 100.191406 Z M 59.375 242.503906 C 60.015625 241.535156 59.753906 240.542969 59.738281 239.644531 C 59.714844 238.449219 60.128906 238.304688 61.175781 238.566406 C 66.800781 239.957031 72.433594 241.296875 78.066406 242.660156 C 102.125 248.476562 126.207031 254.183594 150.207031 260.277344 C 158.792969 262.457031 167.3125 264.894531 175.992188 266.71875 C 176.84375 266.894531 177.53125 267.234375 177.207031 268.21875 C 176.890625 269.160156 176.160156 268.511719 175.636719 268.394531 C 171.4375 267.464844 167.242188 266.480469 163.035156 265.558594 C 160.863281 265.082031 158.671875 264.703125 156.484375 264.28125 C 156.554688 264.550781 156.664062 264.640625 156.785156 264.679688 C 163.949219 266.941406 171.175781 269.003906 178.414062 271.011719 C 179.167969 271.21875 179.214844 270.898438 179.214844 270.328125 C 179.207031 268.84375 179.152344 267.351562 179.261719 265.871094 C 179.339844 264.820312 178.914062 264.496094 177.953125 264.28125 C 173.707031 263.316406 169.472656 262.28125 165.234375 261.273438 C 145.207031 256.507812 125.148438 251.839844 105.035156 247.429688 C 90.492188 244.242188 75.957031 240.972656 61.515625 237.351562 C 58.746094 236.65625 58.707031 236.679688 58.84375 239.582031 C 58.882812 240.511719 58.621094 241.550781 59.375 242.503906 Z M 98.5625 179.894531 C 98.023438 178.257812 96.976562 177.027344 95.746094 175.964844 C 90.015625 170.980469 80.417969 169.949219 73.742188 173.53125 C 70.417969 175.316406 68.878906 178.21875 68.324219 181.890625 C 71.761719 179.074219 73.085938 178.273438 74.917969 177.925781 C 71.488281 180.410156 69.441406 183.710938 68.148438 187.769531 C 77.058594 180.335938 86.503906 180.410156 96.53125 185.058594 C 94.894531 180.765625 91.644531 178.226562 87.484375 176.050781 C 91.761719 176.535156 95.394531 177.519531 98.5625 179.894531 Z M 223.679688 191.859375 C 223.378906 186.976562 221.394531 183.796875 217.300781 181.652344 C 210.730469 178.195312 204.050781 177.710938 197.367188 181.289062 C 195.15625 182.472656 193.519531 184.289062 192.496094 186.652344 C 196.433594 183.804688 200.789062 182.660156 205.761719 182.929688 C 199.898438 185.542969 196.894531 188.074219 195.773438 191.199219 C 205.535156 186.796875 214.207031 187.652344 221.21875 196.808594 C 221.148438 192.554688 219.433594 189.246094 216.433594 186.484375 C 219.210938 187.753906 221.710938 189.328125 223.679688 191.859375 Z M 150.890625 205.894531 C 151.316406 205.957031 151.484375 206.019531 151.652344 206.003906 C 156.117188 205.632812 160.109375 204.0625 163.601562 201.242188 C 164.1875 200.769531 164.332031 200.179688 164.332031 199.46875 C 164.339844 191.714844 164.339844 183.953125 164.402344 176.195312 C 164.410156 175.28125 164.148438 175.070312 163.289062 175.078125 C 160.226562 175.125 157.15625 175.101562 154.09375 175.101562 C 145.421875 175.109375 136.757812 175.101562 128.085938 175.125 C 127.515625 175.125 126.722656 174.78125 126.738281 175.988281 C 126.808594 181.828125 126.792969 187.675781 126.824219 193.515625 C 126.824219 194.039062 126.625 194.863281 127.492188 194.816406 C 128.417969 194.769531 127.984375 193.90625 127.984375 193.445312 C 128.039062 188.660156 128.039062 183.867188 128.0625 179.082031 C 128.070312 177.355469 128.070312 177.386719 129.664062 177.773438 C 140.566406 180.441406 151.453125 180.628906 162.308594 177.550781 C 163.558594 177.195312 163.863281 177.472656 163.855469 178.71875 C 163.824219 184.128906 163.886719 189.546875 163.878906 194.953125 C 163.871094 200.980469 163.59375 201.347656 157.855469 203.480469 C 157.679688 203.546875 157.492188 203.601562 157.308594 203.664062 C 155.261719 204.378906 153.191406 205.09375 150.890625 205.894531 Z M 156.171875 239.433594 C 154.386719 236.625 153.324219 233.648438 152.191406 230.710938 C 151.929688 230.023438 151.375 229.203125 152.832031 229.203125 C 153.285156 229.203125 153.453125 228.785156 153.5625 228.417969 C 154.363281 225.753906 156.023438 223.785156 158.480469 222.523438 C 159.480469 222.007812 159.53125 221.636719 158.726562 220.800781 C 152.539062 214.390625 146.089844 208.242188 139.652344 202.09375 C 137.820312 200.339844 137.496094 200.363281 135.273438 202.003906 C 141.972656 208.878906 149.105469 215.296875 156.03125 222.101562 C 154.109375 222.816406 152.347656 223.421875 150.628906 224.132812 C 149.851562 224.453125 149.507812 224.238281 149.222656 223.523438 C 148.792969 222.460938 148.328125 221.40625 147.804688 220.382812 C 145.765625 216.367188 141.210938 215.175781 137.457031 217.652344 C 137.25 217.789062 136.886719 217.859375 137.019531 218.261719 C 142.789062 218.453125 145.328125 220.046875 148.144531 225.117188 C 150.367188 229.125 151.652344 233.488281 152.96875 237.84375 C 153.675781 240.128906 153.652344 240.136719 156.171875 239.433594 Z M 143.898438 152.382812 C 140.734375 147.011719 136.765625 142.277344 132.671875 137.648438 C 129.410156 133.960938 126.5 130.058594 125.109375 125.234375 C 124.902344 124.511719 124.394531 124.011719 123.824219 123.550781 C 122.769531 122.703125 121.867188 121.726562 121.292969 120.472656 C 121.09375 120.035156 121.144531 119.203125 120.429688 119.371094 C 119.667969 119.550781 120.015625 120.34375 120.03125 120.851562 C 120.214844 125.203125 120.4375 129.558594 120.660156 133.914062 C 120.792969 136.386719 120.945312 138.863281 121.097656 141.585938 C 123.546875 140.1875 125.816406 138.96875 128 137.617188 C 129.03125 136.96875 129.601562 136.921875 130.355469 138.054688 C 134.050781 143.59375 138.851562 148.109375 143.898438 152.382812 Z M 245.203125 256.460938 C 245.195312 256.347656 245.195312 256.238281 245.1875 256.125 C 244.054688 255.792969 242.925781 255.429688 241.777344 255.148438 C 223.933594 250.761719 206.089844 246.382812 188.253906 241.988281 C 187.457031 241.789062 186.738281 241.882812 186.03125 242.234375 C 185.640625 242.429688 185.214844 242.636719 185.292969 243.167969 C 185.363281 243.644531 185.808594 243.691406 186.171875 243.78125 C 187.703125 244.167969 189.242188 244.527344 190.765625 244.921875 C 207.628906 249.207031 224.503906 253.492188 241.371094 257.800781 C 241.730469 257.894531 242.015625 257.863281 242.324219 257.722656 C 243.277344 257.300781 244.238281 256.878906 245.203125 256.460938 Z M 139.011719 153.914062 C 139.179688 153.421875 138.933594 153.210938 138.773438 152.996094 C 135.757812 148.910156 131.71875 145.886719 127.984375 142.539062 C 127.609375 142.203125 127.195312 142.269531 126.777344 142.457031 C 125.339844 143.109375 123.914062 143.769531 122.476562 144.425781 C 122.007812 144.640625 121.675781 144.894531 121.746094 145.503906 C 122.046875 147.925781 122.09375 150.367188 122 152.804688 C 121.960938 153.796875 122.484375 153.957031 123.339844 153.949219 C 126.777344 153.914062 130.226562 153.929688 133.664062 153.929688 C 135.472656 153.914062 137.265625 153.914062 139.011719 153.914062 Z M 79.171875 272.128906 C 80.511719 272.605469 81.84375 273.113281 83.195312 273.550781 C 93.285156 276.867188 103.527344 279.683594 113.734375 282.59375 C 125.417969 285.925781 137.089844 289.300781 148.890625 292.195312 C 149.253906 292.289062 149.867188 292.855469 150.097656 292.125 C 150.316406 291.441406 149.582031 291.457031 149.167969 291.324219 C 143.929688 289.664062 138.695312 287.957031 133.410156 286.425781 C 120.414062 282.652344 107.417969 278.851562 94.339844 275.390625 C 89.351562 274.058594 84.359375 272.789062 79.171875 272.128906 Z M 153.007812 153.597656 C 153.078125 153.710938 153.140625 153.828125 153.207031 153.949219 C 158.125 153.949219 163.050781 153.9375 167.964844 153.964844 C 168.90625 153.972656 169.097656 153.535156 169.089844 152.742188 C 169.074219 151.164062 168.957031 149.574219 169.160156 148.019531 C 169.425781 145.894531 168.949219 144.417969 166.65625 143.933594 C 166.34375 143.863281 166.035156 143.671875 165.765625 143.488281 C 164.996094 142.949219 164.417969 143.179688 163.765625 143.777344 C 160.910156 146.394531 158.015625 148.964844 155.148438 151.566406 C 154.414062 152.21875 153.722656 152.914062 153.007812 153.597656 Z M 185.453125 244.867188 C 185.941406 245.519531 186.640625 245.476562 187.253906 245.652344 C 187.710938 245.78125 188.308594 245.789062 188.378906 246.359375 C 188.496094 247.277344 189.148438 247.296875 189.816406 247.4375 C 194.957031 248.546875 200.097656 249.675781 205.238281 250.792969 C 205.851562 250.921875 206.53125 251 206.460938 251.882812 C 206.375 252.871094 207.007812 252.992188 207.785156 253.167969 C 216.648438 255.183594 225.417969 257.5625 234.160156 260.023438 C 236.414062 260.664062 237.621094 259.316406 239.308594 258.769531 C 221.363281 253.894531 203.34375 249.613281 185.453125 244.867188 Z M 128.546875 228.46875 C 128.984375 227.941406 129.410156 227.402344 129.855469 226.878906 C 133.339844 222.777344 138.472656 222.324219 142.582031 225.777344 C 145.683594 228.378906 147.023438 231.964844 147.84375 235.75 C 148.382812 238.21875 148.597656 240.765625 149.046875 243.257812 C 149.507812 245.875 151.039062 247.523438 153.691406 248.097656 C 157.054688 248.828125 160.410156 249.621094 163.773438 250.375 C 164.125 250.453125 164.511719 250.714844 164.828125 250.332031 C 165.371094 249.667969 164.71875 247.804688 163.863281 247.597656 C 160.839844 246.867188 157.816406 246.144531 154.792969 245.414062 C 152.554688 244.875 151.246094 243.453125 150.785156 241.21875 C 150.675781 240.703125 150.578125 240.1875 150.453125 239.671875 C 149.390625 235.140625 148.253906 230.625 145.613281 226.699219 C 143.429688 223.453125 140.574219 221.246094 136.394531 221.800781 C 132.417969 222.316406 130.03125 224.90625 128.546875 228.46875 Z M 139.835938 128.035156 C 139.8125 129.746094 140.480469 130.550781 142.4375 131.304688 C 144.652344 132.167969 147.136719 131.582031 148.660156 129.835938 C 148.445312 129.636719 148.230469 129.777344 148.015625 129.828125 C 146.167969 130.289062 146.019531 130.214844 145.421875 128.445312 C 144.78125 126.566406 144.542969 124.636719 144.492188 122.664062 C 144.476562 122.164062 144.867188 121.425781 144.050781 121.195312 C 143.191406 120.949219 142.765625 121.488281 142.453125 122.234375 C 141.558594 124.335938 139.875 125.480469 137.726562 126.058594 C 135.804688 126.582031 133.855469 126.652344 131.894531 126.359375 C 131.046875 126.234375 130.742188 126.375 131.011719 127.304688 C 131.578125 129.246094 132.347656 131.089844 133.308594 132.851562 C 133.449219 133.105469 133.519531 133.613281 133.988281 133.238281 C 135.8125 131.785156 138.066406 131.351562 140.351562 130.667969 C 139.535156 129.890625 138.84375 129.175781 139.835938 128.035156 Z M 156.863281 67.183594 C 166.859375 74.175781 170.027344 83.949219 168.566406 95.789062 C 170.359375 94.566406 171.375 93.113281 171.421875 91.179688 C 171.597656 84.25 169.996094 77.878906 165.109375 72.675781 C 162.808594 70.222656 160.132812 68.265625 156.863281 67.183594 Z M 67.015625 228.910156 C 68.222656 229.664062 69.164062 229.371094 70.179688 229.015625 C 75.058594 227.332031 79.957031 225.699219 84.851562 224.054688 C 85.289062 223.90625 85.851562 223.585938 85.96875 224.355469 C 86.089844 225.140625 86.644531 225.140625 87.214844 225.261719 C 90.761719 226.046875 94.332031 226.753906 97.839844 227.695312 C 99.578125 228.164062 100.746094 227.207031 102.15625 226.761719 C 101.972656 226.515625 101.808594 226.425781 101.632812 226.371094 C 96.894531 224.847656 91.96875 224.03125 87.191406 222.652344 C 86.035156 222.324219 84.96875 222.367188 83.835938 222.777344 C 79.335938 224.398438 74.816406 225.953125 70.308594 227.5625 C 69.253906 227.933594 68.238281 228.402344 67.015625 228.910156 Z M 156.460938 124.210938 C 160.742188 124.242188 163.949219 122.15625 164.996094 118.75 C 165.3125 117.726562 165.074219 117.449219 164.035156 117.726562 C 159.539062 118.925781 154.953125 119.601562 150.324219 119.902344 C 149.390625 119.964844 149.40625 120.234375 149.835938 120.910156 C 151.382812 123.359375 153.761719 124.097656 156.460938 124.210938 Z M 78.34375 231.378906 C 78.496094 231.570312 78.542969 231.6875 78.613281 231.703125 C 84.207031 232.988281 89.808594 234.25 95.402344 235.542969 C 96.445312 235.789062 96.800781 235.402344 96.691406 234.394531 C 96.65625 234.019531 96.648438 233.625 96.699219 233.25 C 96.847656 232.242188 96.402344 231.855469 95.429688 231.632812 C 92.351562 230.933594 89.300781 230.125 86.238281 229.363281 C 85.484375 229.179688 84.699219 229.007812 83.964844 229.269531 C 82.097656 229.917969 80.25 230.65625 78.34375 231.378906 Z M 233.460938 261.140625 C 232.757812 260.902344 232.421875 260.765625 232.058594 260.664062 C 223.933594 258.5 215.808594 256.347656 207.683594 254.191406 C 207.261719 254.078125 206.605469 253.738281 206.636719 254.5625 C 206.667969 255.285156 206.03125 256.308594 207.429688 256.640625 C 210.546875 257.371094 213.671875 258.101562 216.730469 259.007812 C 220.855469 260.234375 225.257812 260.5625 229.058594 262.847656 C 229.210938 262.941406 229.527344 262.839844 229.726562 262.757812 C 230.867188 262.273438 231.996094 261.773438 233.460938 261.140625 Z M 170.695312 112.839844 C 170.042969 113.808594 169.859375 114.917969 169.6875 116.035156 C 168.796875 121.804688 168.425781 127.652344 167.082031 133.359375 C 166.28125 136.753906 166.273438 136.753906 169.011719 138.863281 C 169.265625 139.054688 169.472656 139.476562 169.835938 139.324219 C 170.265625 139.148438 170.105469 138.65625 170.121094 138.300781 C 170.265625 135.816406 170.40625 133.332031 170.503906 130.835938 C 170.71875 124.851562 170.988281 118.871094 170.695312 112.839844 Z M 124.085938 117.609375 C 124.707031 119.851562 125.707031 121.464844 127.417969 122.488281 C 129.988281 124.027344 132.816406 124.398438 135.734375 123.867188 C 137.441406 123.558594 138.84375 122.65625 139.703125 121.058594 C 140.066406 120.386719 140.074219 120.003906 139.144531 119.996094 C 134.09375 119.964844 129.132812 119.417969 124.085938 117.609375 Z M 222.226562 266.789062 C 222.117188 265.957031 222.695312 265.65625 223.265625 265.386719 C 224.089844 265.003906 224.941406 264.6875 225.765625 264.320312 C 226.136719 264.15625 226.757812 264.1875 226.757812 263.671875 C 226.757812 263.148438 226.136719 263.15625 225.757812 263.035156 C 219.710938 261.054688 213.53125 259.539062 207.414062 257.800781 C 207.0625 257.703125 206.714844 257.5 206.546875 258.117188 C 206.136719 259.5625 206.574219 260.496094 208.0625 260.886719 C 211.945312 261.917969 215.832031 262.910156 219.726562 263.894531 C 221.972656 264.464844 221.972656 264.449219 222.226562 266.789062 Z M 114.796875 148.941406 C 114.796875 148.957031 114.796875 148.972656 114.796875 148.988281 C 113.121094 148.988281 111.449219 148.996094 109.773438 148.988281 C 109.226562 148.988281 108.957031 149.21875 109.035156 149.765625 C 109.105469 150.242188 108.917969 151.128906 109.621094 150.996094 C 111.40625 150.65625 111.011719 151.8125 111.027344 152.757812 C 111.042969 153.328125 111.019531 153.914062 111.113281 154.472656 C 111.464844 156.589844 113.035156 157.84375 115.144531 157.746094 C 117 157.652344 118.40625 156.191406 118.566406 154.144531 C 118.621094 153.429688 118.589844 152.710938 118.574219 151.996094 C 118.558594 151.441406 118.507812 150.941406 119.34375 151.011719 C 120.414062 151.105469 120.054688 150.234375 120.121094 149.695312 C 120.222656 148.886719 119.660156 148.933594 119.097656 148.941406 C 117.667969 148.957031 116.238281 148.941406 114.796875 148.941406 Z M 176.566406 148.949219 C 176.566406 148.964844 176.566406 148.980469 176.566406 148.996094 C 174.9375 148.996094 173.3125 149.003906 171.683594 148.988281 C 171.136719 148.980469 170.851562 149.21875 170.9375 149.757812 C 171.011719 150.21875 170.703125 151.019531 171.503906 150.988281 C 172.652344 150.941406 172.589844 151.589844 172.550781 152.351562 C 172.519531 152.972656 172.519531 153.597656 172.566406 154.21875 C 172.707031 156.242188 173.867188 157.535156 175.691406 157.730469 C 177.753906 157.945312 179.199219 156.960938 179.777344 154.9375 C 180.046875 154.003906 180.085938 153.042969 180.023438 152.089844 C 179.96875 151.28125 180.085938 150.796875 181.085938 150.996094 C 182.039062 151.1875 181.984375 150.464844 182.054688 149.828125 C 182.144531 148.964844 181.675781 148.917969 181.015625 148.933594 C 179.539062 148.972656 178.054688 148.949219 176.566406 148.949219 Z M 142.789062 241.710938 C 143.105469 241.597656 143.199219 241.320312 143.320312 241.066406 C 144.78125 237.941406 143.945312 233.648438 141.34375 230.957031 C 139.257812 228.800781 136.488281 228.046875 134.179688 229.015625 C 131.539062 230.125 129.507812 233.195312 129.53125 236.019531 C 132.734375 231.496094 134.902344 230.316406 138.058594 231.386719 C 141.527344 232.570312 142.972656 235.71875 142.789062 241.710938 Z M 164.632812 165.414062 C 152.054688 164.683594 139.457031 164.746094 126.871094 165.363281 C 139.449219 166.207031 152.039062 166.03125 164.632812 165.414062 Z M 212.9375 173.101562 C 211.667969 171.277344 210.316406 169.839844 208.476562 168.933594 C 207.605469 168.507812 206.636719 168.292969 205.699219 168.679688 C 202.730469 169.894531 200.683594 172.09375 198.925781 175.042969 C 203.484375 172.523438 208.015625 172.109375 212.9375 173.101562 Z M 152.738281 65.835938 C 152.699219 76.246094 153.214844 86.625 154.039062 96.996094 C 154.683594 86.554688 155.054688 76.136719 152.738281 65.835938 Z M 102.171875 274.773438 C 112.542969 278.546875 123.144531 281.507812 134.011719 283.5 C 123.625 279.808594 113.058594 276.730469 102.171875 274.773438 Z M 211.039062 270.535156 C 208.992188 269.859375 207.160156 269.535156 205.621094 268.6875 C 202.359375 266.886719 199.789062 268.628906 196.671875 270.035156 C 199.21875 270.71875 201.511719 271.089844 203.597656 271.964844 C 206.367188 273.128906 208.421875 271.75 211.039062 270.535156 Z M 217.261719 268.15625 C 214.5 267.1875 211.886719 266.726562 209.476562 265.773438 C 207.128906 264.835938 205.636719 266.066406 203.707031 267.125 C 206.867188 268.289062 209.945312 268.949219 212.984375 269.757812 C 213.261719 269.835938 213.632812 269.660156 213.9375 269.542969 C 214.953125 269.144531 215.964844 268.703125 217.261719 268.15625 Z M 137.941406 238.488281 C 137.910156 236.242188 136.496094 234.566406 134.617188 234.558594 C 132.894531 234.550781 131.546875 236.082031 131.578125 238.019531 C 131.609375 240.34375 133.148438 242.203125 135.027344 242.199219 C 136.757812 242.191406 137.972656 240.644531 137.941406 238.488281 Z M 191.480469 272.375 C 194.402344 273.550781 197.382812 274.222656 200.28125 275.097656 C 200.472656 275.160156 200.75 275.058594 200.957031 274.960938 C 201.980469 274.46875 202.996094 273.945312 204.253906 273.320312 C 202.144531 272.644531 200.160156 272.210938 198.375 271.382812 C 195.828125 270.1875 193.710938 270.84375 191.480469 272.375 Z M 186.03125 274.492188 C 186.449219 275.058594 187.023438 275.066406 187.5 275.214844 C 189.378906 275.773438 191.332031 276.136719 193.132812 276.867188 C 195.257812 277.738281 196.695312 276.507812 198.351562 275.683594 C 195.6875 274.613281 193.035156 273.707031 190.371094 272.789062 C 190.078125 272.691406 189.808594 272.734375 189.539062 272.859375 C 188.378906 273.40625 187.222656 273.9375 186.03125 274.492188 Z M 180.144531 277.105469 C 182.738281 277.875 185.1875 278.398438 187.464844 279.332031 C 189.664062 280.222656 191.078125 278.914062 193.140625 278.015625 C 191.003906 277.328125 189.117188 277.007812 187.523438 276.144531 C 184.816406 274.675781 182.625 275.730469 180.144531 277.105469 Z M 159.347656 138.585938 C 152.777344 141.980469 149.207031 147.640625 145.683594 153.335938 C 150.597656 148.902344 155.230469 144.210938 159.347656 138.585938 Z M 109.027344 196.699219 C 109.027344 193.136719 108.917969 189.84375 109.066406 186.566406 C 109.148438 184.636719 108.21875 183.265625 107.289062 181.757812 C 106.910156 182.097656 107.058594 182.441406 107.058594 182.75 C 107.050781 186.136719 107.148438 189.53125 107.027344 192.914062 C 106.980469 194.546875 107.695312 195.578125 109.027344 196.699219 Z M 182.855469 242.535156 C 181.707031 244.160156 181.398438 245.851562 181.667969 248.367188 C 181.984375 251.238281 181.984375 251.246094 179.054688 251.144531 C 178.308594 251.121094 177.460938 251.253906 176.898438 250.597656 C 176.074219 249.621094 176.105469 249.597656 174.78125 249.613281 C 174.8125 249.707031 174.828125 249.808594 174.882812 249.882812 C 176.453125 252.054688 183.546875 252.453125 185.347656 250.46875 C 185.753906 250.023438 185.917969 249.46875 185.824219 248.875 C 185.707031 248.144531 185.070312 248.230469 184.585938 248.191406 C 183.59375 248.105469 183.183594 247.628906 183.160156 246.628906 C 183.140625 245.34375 182.976562 244.074219 182.855469 242.535156 Z M 62.546875 246.628906 C 60.375 246.097656 58.359375 245.613281 56.34375 245.121094 C 55.503906 244.914062 54.589844 244.8125 54.742188 243.558594 C 54.796875 243.113281 54.488281 242.972656 54.082031 243.121094 C 52.703125 243.613281 51.3125 244.050781 49.886719 244.890625 C 52.898438 245.714844 55.722656 246.40625 58.492188 247.277344 C 59.953125 247.746094 61.175781 247.558594 62.546875 246.628906 Z M 131.308594 200.734375 C 131.292969 199.402344 130.703125 198.425781 129.441406 197.746094 C 128.800781 197.410156 128.054688 197.054688 127.394531 197.355469 C 126.679688 197.6875 127.316406 198.453125 127.195312 199.015625 C 126.832031 200.617188 127.070312 201.757812 128.964844 202.355469 C 130.769531 202.933594 131.339844 202.710938 131.308594 200.734375 Z M 86.644531 227.847656 C 86.390625 227.847656 86.105469 227.808594 86.050781 228.117188 C 85.960938 228.671875 86.453125 228.710938 86.78125 228.800781 C 89.8125 229.648438 92.855469 230.472656 95.894531 231.292969 C 96.191406 231.378906 96.578125 231.59375 96.691406 231.0625 C 96.785156 230.640625 96.871094 230.195312 96.253906 230.054688 C 95.324219 229.839844 94.398438 229.609375 93.46875 229.394531 C 91.191406 228.878906 88.90625 228.363281 86.644531 227.847656 Z M 114.011719 234.601562 C 109.597656 233.339844 105.289062 231.5625 100.59375 231.632812 C 104.988281 233.035156 109.425781 234.15625 114.011719 234.601562 Z M 189.316406 286.492188 C 185.523438 284.554688 181.4375 283.578125 177.277344 282.839844 C 181.175781 284.421875 185.191406 285.648438 189.316406 286.492188 Z M 183.0625 195.453125 C 183.492188 192.722656 183.429688 189.984375 183.085938 187.246094 C 182.871094 189.984375 182.652344 192.714844 183.0625 195.453125 Z M 183.0625 195.453125 " fill-opacity="1" fill-rule="nonzero"/></g><path fill="#391b01" d="M 228.6875 222.191406 C 226.011719 222.191406 223.339844 222.199219 220.664062 222.183594 C 220.171875 222.183594 219.59375 222.285156 219.625 221.414062 C 219.648438 220.613281 220.085938 220.628906 220.648438 220.628906 C 225.902344 220.660156 231.160156 220.683594 236.414062 220.722656 C 236.953125 220.722656 237.613281 220.578125 237.621094 221.507812 C 237.628906 222.453125 236.96875 222.277344 236.429688 222.277344 C 233.851562 222.292969 231.265625 222.285156 228.6875 222.285156 C 228.6875 222.246094 228.6875 222.214844 228.6875 222.191406 Z M 228.6875 222.191406 " fill-opacity="1" fill-rule="nonzero"/><path fill="#391b01" d="M 206.453125 229.070312 C 208.332031 228.195312 209.652344 227.164062 210.347656 225.46875 C 210.554688 224.96875 211 225.175781 211.199219 225.59375 C 211.894531 227.007812 212.878906 228.117188 214.347656 228.785156 C 214.832031 229.007812 214.832031 229.363281 214.316406 229.585938 C 212.910156 230.195312 211.777344 231.078125 211.144531 232.527344 C 210.992188 232.878906 210.578125 233.054688 210.375 232.632812 C 209.613281 231.003906 208.261719 230 206.453125 229.070312 Z M 206.453125 229.070312 " fill-opacity="1" fill-rule="nonzero"/><path fill="#391b01" d="M 61.9375 212.9375 C 60.230469 213.804688 58.867188 214.8125 58.082031 216.453125 C 57.8125 217.015625 57.46875 216.78125 57.257812 216.375 C 56.589844 215.035156 55.558594 214.089844 54.21875 213.4375 C 53.695312 213.183594 53.574219 212.804688 54.199219 212.542969 C 55.628906 211.929688 56.644531 210.917969 57.304688 209.511719 C 57.519531 209.050781 57.882812 208.996094 58.144531 209.496094 C 58.976562 211.050781 60.089844 212.3125 61.9375 212.9375 Z M 61.9375 212.9375 " fill-opacity="1" fill-rule="nonzero"/><path fill="#391b01" d="M 240.652344 231.257812 C 238.859375 232.179688 237.421875 233.003906 236.707031 234.664062 C 236.460938 235.242188 236.097656 234.957031 235.898438 234.550781 C 235.261719 233.25 234.269531 232.332031 232.96875 231.710938 C 232.3125 231.394531 232.421875 231.015625 233.011719 230.710938 C 234.28125 230.054688 235.320312 229.1875 235.914062 227.839844 C 236.113281 227.386719 236.554688 227.277344 236.792969 227.730469 C 237.605469 229.308594 238.808594 230.480469 240.652344 231.257812 Z M 240.652344 231.257812 " fill-opacity="1" fill-rule="nonzero"/><path fill="#391b01" d="M 229.652344 238.335938 C 227.964844 239.335938 226.496094 240.066406 225.742188 241.628906 C 225.441406 242.25 225.089844 242.050781 224.84375 241.558594 C 224.203125 240.320312 223.226562 239.441406 221.988281 238.835938 C 221.324219 238.511719 221.363281 238.164062 221.996094 237.867188 C 223.296875 237.25 224.289062 236.347656 224.867188 234.996094 C 225.171875 234.273438 225.597656 234.496094 225.867188 235.042969 C 226.605469 236.597656 227.851562 237.582031 229.652344 238.335938 Z M 229.652344 238.335938 " fill-opacity="1" fill-rule="nonzero"/><path fill="#391b01" d="M 231.160156 157.484375 C 229.480469 158.421875 228.152344 159.253906 227.417969 160.769531 C 227.144531 161.34375 226.726562 161.175781 226.472656 160.675781 C 225.875 159.53125 224.996094 158.691406 223.847656 158.105469 C 223.132812 157.746094 223.011719 157.359375 223.835938 156.9375 C 225.058594 156.304688 226.050781 155.445312 226.636719 154.160156 C 226.910156 153.550781 227.296875 153.644531 227.550781 154.175781 C 228.257812 155.683594 229.503906 156.621094 231.160156 157.484375 Z M 231.160156 157.484375 " fill-opacity="1" fill-rule="nonzero"/><path fill="#391b01" d="M 232.367188 180.019531 C 231.535156 178.257812 230.519531 177.15625 229.074219 176.480469 C 228.464844 176.195312 228.597656 175.78125 229.097656 175.558594 C 230.453125 174.949219 231.550781 174.101562 232.167969 172.695312 C 232.390625 172.179688 232.757812 172.226562 232.984375 172.703125 C 233.691406 174.195312 234.890625 175.179688 236.714844 175.988281 C 234.730469 176.847656 233.390625 178.011719 232.367188 180.019531 Z M 232.367188 180.019531 " fill-opacity="1" fill-rule="nonzero"/><path fill="#391b01" d="M 55.742188 191.546875 C 56.589844 193.347656 57.644531 194.507812 59.191406 195.191406 C 59.8125 195.46875 59.613281 195.886719 59.105469 196.09375 C 57.8125 196.625 56.851562 197.484375 56.234375 198.753906 C 55.945312 199.355469 55.558594 199.402344 55.234375 198.738281 C 54.644531 197.53125 53.71875 196.675781 52.511719 196.101562 C 52.003906 195.855469 51.636719 195.507812 52.414062 195.152344 C 53.914062 194.476562 54.960938 193.363281 55.742188 191.546875 Z M 55.742188 191.546875 " fill-opacity="1" fill-rule="nonzero"/><path fill="#391b01" d="M 57.914062 170.09375 C 58.9375 171.855469 59.875 173.378906 62.214844 173.832031 C 60.414062 174.863281 59.042969 175.710938 58.238281 177.179688 C 57.96875 177.664062 57.589844 177.519531 57.375 177.082031 C 56.78125 175.863281 55.828125 175.042969 54.621094 174.464844 C 54.273438 174.300781 54.027344 173.964844 54.542969 173.757812 C 56.167969 173.117188 57.082031 171.816406 57.914062 170.09375 Z M 57.914062 170.09375 " fill-opacity="1" fill-rule="nonzero"/><path fill="#391b01" d="M 64.023438 158.976562 C 63.707031 158.984375 63.578125 158.769531 63.476562 158.558594 C 62.921875 157.4375 62.015625 156.691406 60.929688 156.128906 C 60.066406 155.683594 60.269531 155.367188 60.992188 155.003906 C 62.105469 154.457031 62.914062 153.628906 63.367188 152.441406 C 63.683594 151.628906 64.101562 151.8125 64.414062 152.433594 C 65.023438 153.621094 65.816406 154.582031 67.09375 155.097656 C 67.453125 155.242188 67.878906 155.519531 67.253906 155.875 C 66.023438 156.566406 64.929688 157.375 64.324219 158.707031 C 64.269531 158.828125 64.117188 158.898438 64.023438 158.976562 Z M 64.023438 158.976562 " fill-opacity="1" fill-rule="nonzero"/><path fill="#391b01" d="M 232.113281 214.367188 C 230.96875 214.367188 229.820312 214.367188 228.675781 214.367188 C 228.121094 214.367188 227.628906 214.367188 227.652344 213.558594 C 227.664062 212.789062 228.167969 212.890625 228.636719 212.890625 C 230.929688 212.898438 233.222656 212.914062 235.515625 212.945312 C 235.976562 212.949219 236.507812 212.890625 236.515625 213.628906 C 236.523438 214.34375 236.046875 214.351562 235.550781 214.351562 C 234.40625 214.375 233.257812 214.367188 232.113281 214.367188 Z M 232.113281 214.367188 " fill-opacity="1" fill-rule="nonzero"/><path fill="#391b01" d="M 73.363281 133.714844 C 72.457031 133.714844 71.546875 133.699219 70.640625 133.722656 C 70.078125 133.738281 69.894531 133.476562 69.894531 132.945312 C 69.894531 132.414062 70.0625 132.152344 70.632812 132.160156 C 72.402344 132.183594 74.164062 132.183594 75.933594 132.183594 C 76.457031 132.183594 76.726562 132.367188 76.710938 132.945312 C 76.703125 133.492188 76.488281 133.730469 75.941406 133.714844 C 75.078125 133.699219 74.226562 133.707031 73.363281 133.707031 C 73.363281 133.699219 73.363281 133.707031 73.363281 133.714844 Z M 73.363281 133.714844 " fill-opacity="1" fill-rule="nonzero"/><path fill="#391b01" d="M 223.109375 229.648438 C 222.058594 229.648438 221.011719 229.640625 219.957031 229.648438 C 219.480469 229.648438 219.277344 229.433594 219.265625 228.957031 C 219.242188 228.433594 219.511719 228.277344 219.957031 228.277344 C 221.964844 228.285156 223.972656 228.300781 225.980469 228.316406 C 226.390625 228.316406 226.734375 228.386719 226.71875 228.949219 C 226.703125 229.457031 226.574219 229.761719 225.988281 229.746094 C 225.035156 229.726562 224.074219 229.738281 223.117188 229.738281 C 223.109375 229.710938 223.109375 229.679688 223.109375 229.648438 Z M 223.109375 229.648438 " fill-opacity="1" fill-rule="nonzero"/><path fill="#391b01" d="M 224.613281 148.195312 C 223.75 148.195312 222.886719 148.179688 222.027344 148.203125 C 221.488281 148.21875 221.25 148.019531 221.265625 147.449219 C 221.273438 146.886719 221.511719 146.703125 222.050781 146.710938 C 223.773438 146.726562 225.496094 146.71875 227.21875 146.710938 C 227.796875 146.703125 228.097656 146.902344 228.082031 147.550781 C 228.074219 148.234375 227.613281 148.15625 227.195312 148.164062 C 226.335938 148.179688 225.472656 148.171875 224.609375 148.171875 C 224.613281 148.179688 224.613281 148.1875 224.613281 148.195312 Z M 224.613281 148.195312 " fill-opacity="1" fill-rule="nonzero"/><path fill="#391b01" d="M 235.296875 187.050781 C 234.777344 187.050781 234.253906 187.019531 233.730469 187.058594 C 233.199219 187.097656 232.9375 186.953125 232.96875 186.359375 C 232.992188 185.875 233.058594 185.535156 233.667969 185.550781 C 234.804688 185.574219 235.953125 185.550781 237.097656 185.550781 C 237.539062 185.550781 237.832031 185.683594 237.832031 186.199219 C 237.832031 186.683594 237.746094 187.058594 237.160156 187.058594 C 236.546875 187.058594 235.921875 187.058594 235.304688 187.058594 C 235.296875 187.058594 235.296875 187.058594 235.296875 187.050781 Z M 235.296875 187.050781 " fill-opacity="1" fill-rule="nonzero"/><path fill="#391b01" d="M 70.878906 214.488281 C 70.402344 214.160156 69.179688 215.113281 69.101562 213.765625 C 69.015625 212.289062 70.292969 213.21875 70.910156 212.980469 C 71.277344 212.835938 71.753906 212.957031 72.1875 212.9375 C 72.75 212.90625 73.078125 213.050781 73.070312 213.71875 C 73.0625 214.398438 72.695312 214.503906 72.15625 214.488281 C 71.769531 214.480469 71.394531 214.488281 70.878906 214.488281 Z M 70.878906 214.488281 " fill-opacity="1" fill-rule="nonzero"/><path fill="#391b01" d="M 54.921875 186.453125 C 54.351562 186.453125 53.773438 186.46875 53.203125 186.445312 C 52.757812 186.429688 52.6875 186.113281 52.695312 185.75 C 52.703125 185.390625 52.757812 185.074219 53.21875 185.066406 C 54.414062 185.050781 55.605469 185.027344 56.789062 185.027344 C 57.238281 185.027344 57.3125 185.367188 57.304688 185.730469 C 57.304688 186.089844 57.207031 186.414062 56.773438 186.429688 C 56.160156 186.453125 55.535156 186.4375 54.921875 186.4375 C 54.921875 186.445312 54.921875 186.453125 54.921875 186.453125 Z M 54.921875 186.453125 " fill-opacity="1" fill-rule="nonzero"/><path fill="#391b01" d="M 60.539062 166.230469 C 60.015625 166.230469 59.484375 166.222656 58.960938 166.230469 C 58.589844 166.238281 58.269531 166.183594 58.296875 165.714844 C 58.320312 165.347656 58.273438 164.882812 58.828125 164.878906 C 59.976562 164.855469 61.121094 164.855469 62.269531 164.871094 C 62.714844 164.878906 62.792969 165.191406 62.785156 165.5625 C 62.785156 165.929688 62.699219 166.230469 62.253906 166.238281 C 61.683594 166.230469 61.105469 166.230469 60.539062 166.230469 Z M 60.539062 166.230469 " fill-opacity="1" fill-rule="nonzero"/><path fill="#391b01" d="M 218.632812 135.699219 C 218.203125 135.699219 217.769531 135.683594 217.339844 135.699219 C 216.894531 135.714844 216.601562 135.609375 216.617188 135.070312 C 216.632812 134.660156 216.625 134.269531 217.171875 134.253906 C 218.226562 134.230469 219.277344 134.207031 220.324219 134.207031 C 220.847656 134.207031 220.925781 134.5625 220.910156 134.992188 C 220.902344 135.375 220.78125 135.644531 220.347656 135.652344 C 219.773438 135.652344 219.203125 135.652344 218.625 135.652344 C 218.632812 135.667969 218.632812 135.683594 218.632812 135.699219 Z M 218.632812 135.699219 " fill-opacity="1" fill-rule="nonzero"/><path fill="#391b01" d="M 230.542969 166.609375 C 231.066406 166.609375 231.589844 166.609375 232.113281 166.609375 C 232.535156 166.609375 232.707031 166.832031 232.691406 167.238281 C 232.683594 167.648438 232.636719 168.046875 232.121094 168.054688 C 231.027344 168.070312 229.929688 168.0625 228.835938 168.046875 C 228.382812 168.039062 228.3125 167.722656 228.335938 167.363281 C 228.359375 167.023438 228.359375 166.65625 228.828125 166.640625 C 229.398438 166.625 229.964844 166.632812 230.542969 166.632812 C 230.542969 166.625 230.542969 166.617188 230.542969 166.609375 Z M 230.542969 166.609375 " fill-opacity="1" fill-rule="nonzero"/><path fill="#391b01" d="M 67.714844 147.917969 C 67.246094 147.917969 66.769531 147.910156 66.300781 147.917969 C 65.847656 147.925781 65.609375 147.757812 65.609375 147.257812 C 65.617188 146.75 65.746094 146.457031 66.324219 146.464844 C 67.269531 146.480469 68.214844 146.464844 69.164062 146.441406 C 69.695312 146.433594 69.933594 146.640625 69.917969 147.195312 C 69.894531 147.726562 69.664062 147.972656 69.140625 147.964844 C 68.671875 147.957031 68.191406 147.964844 67.722656 147.964844 C 67.714844 147.949219 67.714844 147.933594 67.714844 147.917969 Z M 67.714844 147.917969 " fill-opacity="1" fill-rule="nonzero"/><path fill="#391b01" d="M 63.867188 206.347656 C 63.390625 206.164062 62.523438 206.734375 62.507812 205.640625 C 62.492188 204.480469 63.390625 204.878906 63.953125 204.886719 C 64.46875 204.894531 65.308594 204.519531 65.332031 205.570312 C 65.347656 206.765625 64.429688 206.203125 63.867188 206.347656 Z M 63.867188 206.347656 " fill-opacity="1" fill-rule="nonzero"/><path fill="#391b01" d="M 234.34375 205.171875 C 233.921875 204.949219 233.019531 205.585938 233.007812 204.488281 C 233 203.332031 233.921875 203.816406 234.476562 203.742188 C 235.015625 203.671875 235.683594 203.546875 235.652344 204.480469 C 235.621094 205.457031 234.882812 205.0625 234.34375 205.171875 Z M 234.34375 205.171875 " fill-opacity="1" fill-rule="nonzero"/><path fill="#391b01" d="M 57.207031 206.195312 C 56.511719 206.289062 56.121094 206.125 56.160156 205.304688 C 56.191406 204.554688 56.613281 204.625 57.113281 204.648438 C 57.730469 204.679688 58.375 204.554688 58.320312 205.558594 C 58.269531 206.449219 57.644531 206.125 57.207031 206.195312 Z M 57.207031 206.195312 " fill-opacity="1" fill-rule="nonzero"/><path fill="#391b01" d="M 235.304688 196.261719 C 234.898438 196.070312 234.097656 196.625 234.074219 195.59375 C 234.050781 194.4375 234.898438 194.816406 235.484375 194.777344 C 236.058594 194.730469 236.683594 194.683594 236.613281 195.59375 C 236.539062 196.507812 235.859375 196.222656 235.304688 196.261719 Z M 235.304688 196.261719 " fill-opacity="1" fill-rule="nonzero"/><path fill="#391b01" d="M 197.542969 232.59375 C 198.042969 232.601562 198.472656 232.625 198.464844 233.339844 C 198.457031 234.140625 197.964844 234.101562 197.417969 234.117188 C 196.867188 234.132812 196.542969 234.035156 196.511719 233.355469 C 196.472656 232.503906 197.035156 232.625 197.542969 232.59375 Z M 197.542969 232.59375 " fill-opacity="1" fill-rule="nonzero"/><path fill="#391b01" d="M 136.589844 268.351562 C 136.609375 269.257812 136.125 269.003906 135.726562 268.890625 C 129.640625 267.242188 123.554688 265.601562 117.476562 263.949219 C 116.691406 263.734375 115.921875 263.488281 115.128906 263.289062 C 114.597656 263.15625 114.429688 262.800781 114.527344 262.332031 C 114.675781 261.65625 115.152344 262.09375 115.429688 262.164062 C 122.160156 263.980469 128.886719 265.820312 135.601562 267.648438 C 136.042969 267.78125 136.605469 267.789062 136.589844 268.351562 Z M 136.589844 268.351562 " fill-opacity="1" fill-rule="nonzero"/><path fill="#391b01" d="M 158.210938 274.328125 C 158.195312 274.796875 157.949219 274.835938 157.53125 274.753906 C 154.761719 274.191406 152.085938 273.328125 149.375 272.535156 C 148.945312 272.414062 148.746094 272.089844 148.851562 271.660156 C 149.015625 270.996094 149.453125 271.398438 149.761719 271.480469 C 152.300781 272.152344 154.832031 272.84375 157.371094 273.519531 C 157.816406 273.644531 158.21875 273.765625 158.210938 274.328125 Z M 158.210938 274.328125 " fill-opacity="1" fill-rule="nonzero"/><path fill="#391b01" d="M 145.699219 270.828125 C 145.738281 271.550781 145.453125 271.527344 145.066406 271.421875 C 143.550781 270.996094 142.035156 270.574219 140.503906 270.179688 C 139.988281 270.050781 139.742188 269.765625 139.875 269.257812 C 140.027344 268.648438 140.488281 268.980469 140.804688 269.058594 C 142.199219 269.398438 143.574219 269.78125 144.96875 270.128906 C 145.453125 270.242188 145.707031 270.519531 145.699219 270.828125 Z M 145.699219 270.828125 " fill-opacity="1" fill-rule="nonzero"/><path fill="#391b01" d="M 117.167969 153.34375 C 117.152344 154.882812 116.144531 155.960938 114.722656 155.953125 C 113.4375 155.945312 112.382812 154.875 112.367188 153.558594 C 112.34375 152.058594 113.421875 150.867188 114.765625 150.894531 C 116.238281 150.925781 117.183594 151.890625 117.167969 153.34375 Z M 117.167969 153.34375 " fill-opacity="1" fill-rule="nonzero"/><path fill="#391b01" d="M 173.78125 153.464844 C 173.789062 151.925781 174.765625 150.941406 176.269531 150.964844 C 177.761719 150.988281 178.722656 151.996094 178.714844 153.535156 C 178.707031 154.90625 177.574219 155.960938 176.097656 155.976562 C 174.722656 155.988281 173.765625 154.957031 173.78125 153.464844 Z M 173.78125 153.464844 " fill-opacity="1" fill-rule="nonzero"/><path fill="#391b01" d="M 136.289062 238.773438 C 136.226562 239.582031 135.6875 240.097656 134.734375 240.121094 C 133.773438 240.144531 133.101562 239.28125 133.179688 238.132812 C 133.234375 237.25 133.535156 236.511719 134.578125 236.488281 C 135.449219 236.457031 136.328125 237.589844 136.289062 238.773438 Z M 136.289062 238.773438 " fill-opacity="1" fill-rule="nonzero"/><g clip-path="url(#15355bf1fb)"><path fill="#623d1c" d="M 237.148438 330.464844 L 49.363281 330.464844 C 47.757812 330.464844 46.152344 330.382812 44.554688 330.222656 C 42.957031 330.066406 41.367188 329.828125 39.792969 329.511719 C 38.214844 329.199219 36.660156 328.808594 35.121094 328.339844 C 33.585938 327.871094 32.074219 327.328125 30.589844 326.714844 C 29.105469 326.097656 27.65625 325.410156 26.238281 324.652344 C 24.820312 323.894531 23.445312 323.070312 22.109375 322.175781 C 20.773438 321.28125 19.484375 320.328125 18.242188 319.308594 C 17 318.289062 15.8125 317.210938 14.675781 316.074219 C 13.539062 314.9375 12.460938 313.746094 11.441406 312.507812 C 10.421875 311.265625 9.464844 309.976562 8.574219 308.640625 C 7.679688 307.304688 6.855469 305.925781 6.097656 304.511719 C 5.339844 303.09375 4.652344 301.644531 4.035156 300.160156 C 3.417969 298.675781 2.878906 297.164062 2.410156 295.625 C 1.941406 294.089844 1.550781 292.53125 1.234375 290.957031 C 0.921875 289.382812 0.683594 287.792969 0.523438 286.195312 C 0.367188 284.597656 0.285156 282.992188 0.285156 281.386719 L 0.285156 149.75 C 0.277344 146.648438 0.566406 143.578125 1.15625 140.53125 C 1.746094 137.488281 2.621094 134.527344 3.785156 131.652344 C 4.945312 128.78125 6.375 126.042969 8.066406 123.445312 C 9.757812 120.847656 11.6875 118.4375 13.847656 116.210938 L 114.300781 12.324219 C 115.238281 11.355469 116.21875 10.429688 117.246094 9.558594 C 118.273438 8.683594 119.34375 7.867188 120.453125 7.101562 C 121.5625 6.335938 122.707031 5.628906 123.890625 4.976562 C 125.070312 4.328125 126.28125 3.738281 127.523438 3.210938 C 128.761719 2.679688 130.027344 2.21875 131.3125 1.816406 C 132.601562 1.414062 133.90625 1.082031 135.226562 0.8125 C 136.546875 0.542969 137.878906 0.339844 139.21875 0.203125 C 140.5625 0.0664062 141.90625 0 143.253906 0 C 144.605469 0 145.949219 0.0664062 147.289062 0.203125 C 148.632812 0.339844 149.964844 0.542969 151.285156 0.8125 C 152.605469 1.082031 153.910156 1.414062 155.195312 1.816406 C 156.484375 2.21875 157.75 2.679688 158.988281 3.210938 C 160.230469 3.738281 161.441406 4.328125 162.621094 4.976562 C 163.804688 5.628906 164.949219 6.335938 166.058594 7.101562 C 167.167969 7.867188 168.238281 8.683594 169.265625 9.558594 C 170.292969 10.429688 171.273438 11.355469 172.207031 12.324219 L 282.027344 125.890625 C 282.714844 126.597656 283.328125 127.359375 283.863281 128.183594 C 284.398438 129.011719 284.847656 129.878906 285.214844 130.792969 C 285.578125 131.707031 285.847656 132.648438 286.027344 133.613281 C 286.207031 134.582031 286.289062 135.558594 286.273438 136.542969 C 286.257812 137.523438 286.148438 138.496094 285.941406 139.460938 C 285.738281 140.421875 285.4375 141.355469 285.046875 142.257812 C 284.65625 143.160156 284.183594 144.015625 283.621094 144.824219 C 283.0625 145.632812 282.429688 146.378906 281.722656 147.0625 C 281.015625 147.746094 280.246094 148.355469 279.421875 148.886719 C 278.59375 149.417969 277.722656 149.867188 276.804688 150.226562 C 275.890625 150.585938 274.949219 150.851562 273.980469 151.027344 C 273.011719 151.203125 272.035156 151.277344 271.054688 151.261719 C 270.070312 151.242188 269.097656 151.125 268.136719 150.914062 C 267.175781 150.703125 266.246094 150.402344 265.34375 150.007812 C 264.441406 149.613281 263.589844 149.132812 262.78125 148.570312 C 261.976562 148.007812 261.234375 147.371094 260.550781 146.660156 L 150.722656 33.136719 C 150.246094 32.625 149.71875 32.167969 149.148438 31.765625 C 148.574219 31.363281 147.96875 31.023438 147.324219 30.746094 C 146.683594 30.46875 146.019531 30.257812 145.332031 30.113281 C 144.648438 29.972656 143.957031 29.902344 143.253906 29.902344 C 142.554688 29.902344 141.863281 29.972656 141.175781 30.113281 C 140.492188 30.257812 139.828125 30.46875 139.1875 30.746094 C 138.542969 31.023438 137.9375 31.363281 137.363281 31.765625 C 136.792969 32.167969 136.265625 32.625 135.785156 33.136719 L 35.320312 136.980469 C 33.664062 138.699219 32.394531 140.664062 31.507812 142.878906 C 30.621094 145.097656 30.1875 147.398438 30.199219 149.785156 L 30.199219 281.386719 C 30.203125 282.015625 30.234375 282.640625 30.296875 283.269531 C 30.359375 283.894531 30.449219 284.515625 30.574219 285.132812 C 30.699219 285.746094 30.851562 286.355469 31.035156 286.957031 C 31.214844 287.558594 31.429688 288.152344 31.667969 288.730469 C 31.910156 289.3125 32.179688 289.878906 32.476562 290.433594 C 32.773438 290.988281 33.097656 291.527344 33.445312 292.050781 C 33.792969 292.574219 34.167969 293.078125 34.566406 293.5625 C 34.96875 294.046875 35.390625 294.515625 35.832031 294.957031 C 36.277344 295.402344 36.742188 295.824219 37.230469 296.222656 C 37.714844 296.621094 38.21875 296.996094 38.742188 297.347656 C 39.265625 297.695312 39.804688 298.019531 40.359375 298.316406 C 40.910156 298.613281 41.480469 298.882812 42.058594 299.121094 C 42.640625 299.363281 43.230469 299.574219 43.832031 299.757812 C 44.433594 299.941406 45.042969 300.09375 45.660156 300.21875 C 46.277344 300.339844 46.898438 300.433594 47.523438 300.496094 C 48.148438 300.558594 48.777344 300.589844 49.40625 300.589844 L 237.191406 300.589844 C 238.171875 300.589844 239.140625 300.6875 240.105469 300.878906 C 241.066406 301.070312 242 301.351562 242.90625 301.726562 C 243.8125 302.105469 244.671875 302.5625 245.488281 303.109375 C 246.304688 303.652344 247.058594 304.273438 247.753906 304.964844 C 248.445312 305.660156 249.066406 306.414062 249.609375 307.230469 C 250.15625 308.046875 250.613281 308.90625 250.992188 309.8125 C 251.367188 310.71875 251.648438 311.652344 251.839844 312.613281 C 252.03125 313.578125 252.128906 314.546875 252.128906 315.527344 C 252.128906 316.507812 252.03125 317.480469 251.839844 318.441406 C 251.648438 319.40625 251.367188 320.339844 250.992188 321.246094 C 250.613281 322.152344 250.15625 323.011719 249.609375 323.828125 C 249.066406 324.644531 248.445312 325.398438 247.753906 326.089844 C 247.058594 326.785156 246.304688 327.402344 245.488281 327.949219 C 244.671875 328.492188 243.8125 328.953125 242.90625 329.328125 C 242 329.703125 241.066406 329.988281 240.105469 330.179688 C 239.140625 330.371094 238.171875 330.464844 237.191406 330.464844 Z M 237.148438 330.464844 " fill-opacity="1" fill-rule="nonzero"/></g></svg>