<svg xmlns="http://www.w3.org/2000/svg" xmlns:xlink="http://www.w3.org/1999/xlink" width="1024" zoomAndPan="magnify" viewBox="0 0 768 767.999994" height="1024" preserveAspectRatio="xMidYMid meet" version="1.0"><defs><clipPath id="40982d2fd7"><path d="M 91 122.417969 L 524.902344 122.417969 L 524.902344 626 L 91 626 Z M 91 122.417969 " clip-rule="nonzero"/></clipPath><clipPath id="1f9469a097"><path d="M 2 0.382812 L 601 0.382812 L 601 692 L 2 692 Z M 2 0.382812 " clip-rule="nonzero"/></clipPath><clipPath id="a30262c83c"><rect x="0" width="602" y="0" height="694"/></clipPath></defs><rect x="-76.8" width="921.6" fill="#ffffff" y="-76.799999" height="921.599993" fill-opacity="1"/><rect x="-76.8" width="921.6" fill="#b47b39" y="-76.799999" height="921.599993" fill-opacity="1"/><g transform="matrix(1, 0, 0, 1, 82, 38)"><g clip-path="url(#a30262c83c)"><g clip-path="url(#40982d2fd7)"><path fill="#391b01" d="M 91.835938 547.917969 C 91.773438 535.492188 92.464844 523.070312 92.078125 510.644531 C 92.03125 508.957031 92.59375 508.167969 94.171875 507.574219 C 100.464844 505.222656 106.660156 502.664062 112.96875 500.363281 C 115.042969 499.605469 115.992188 498.640625 115.910156 496.292969 C 115.734375 491.480469 115.945312 486.667969 115.816406 481.855469 C 115.765625 480.152344 116.332031 479.492188 117.941406 478.925781 C 138.265625 471.78125 158.542969 464.574219 178.835938 457.332031 C 180.460938 456.75 181.957031 456.945312 183.550781 457.300781 C 192.03125 459.261719 200.542969 461.113281 209.007812 463.203125 C 211.324219 463.769531 211.132812 463.09375 210.84375 461.257812 C 209.941406 455.511719 207.351562 452.535156 201.011719 451.523438 C 190.355469 449.816406 179.800781 447.289062 169.675781 443.265625 C 158.925781 438.984375 150.542969 432.097656 145.425781 421.558594 C 145.023438 420.738281 144.574219 420.027344 143.71875 419.546875 C 137.71875 416.261719 134.707031 410.792969 133.292969 404.433594 C 131.457031 396.128906 131.488281 387.714844 133.066406 379.347656 C 134.226562 373.261719 137.203125 368.097656 141.660156 363.816406 C 142.835938 362.691406 143.398438 361.5625 143.367188 359.90625 C 143.269531 354.402344 144.703125 349.203125 146.746094 344.152344 C 154.46875 325.015625 162.710938 306.09375 169.484375 286.589844 C 171.785156 279.957031 174.136719 273.359375 177.691406 267.261719 C 186.269531 252.566406 199.804688 244.472656 214.976562 237.90625 C 224.039062 233.980469 233.113281 230.246094 242.480469 227.175781 C 243.847656 226.722656 243.816406 226.046875 243.253906 224.9375 C 240.164062 218.902344 239.421875 212.738281 242.59375 206.480469 C 243.285156 205.109375 242.335938 204.5625 241.613281 203.726562 C 237.445312 198.980469 234.082031 193.1875 236.703125 187.296875 C 239.679688 180.632812 239.777344 173.539062 241.980469 166.859375 C 248.339844 147.613281 261.324219 135.21875 280.589844 129.28125 C 282.875 128.574219 285.160156 128.1875 286.75 126 C 287.75 124.617188 289.632812 124.132812 291.304688 123.875 C 299.175781 122.621094 307.0625 122.652344 314.945312 123.828125 C 316.539062 124.070312 318.230469 124.519531 319.324219 125.675781 C 321.671875 128.171875 324.792969 128.832031 327.820312 129.765625 C 350.558594 136.734375 365.589844 155.144531 367.84375 178.800781 C 367.957031 179.910156 368.101562 180.988281 368.710938 181.953125 C 373.089844 188.761719 372.011719 195.328125 367.601562 201.570312 C 366.152344 203.613281 365.671875 205.207031 366.796875 207.71875 C 369.257812 213.238281 368.308594 218.757812 365.347656 223.84375 C 364.140625 225.917969 364.785156 226.578125 366.683594 227.15625 C 373.765625 229.3125 380.84375 231.519531 387.925781 233.707031 C 389.246094 234.109375 390.644531 234.191406 391.0625 235.992188 C 391.335938 237.152344 392.722656 237.007812 393.605469 237.28125 C 402.054688 239.96875 410.167969 243.296875 417.441406 248.480469 C 427.242188 255.464844 435.125 264.300781 439.085938 275.582031 C 449.640625 305.722656 461.710938 335.332031 470.289062 366.148438 C 471.640625 370.992188 472.476562 375.917969 472.285156 380.988281 C 472.25 381.90625 472.316406 382.804688 472.960938 383.53125 C 481.746094 393.523438 481.921875 405.417969 480.332031 417.613281 C 479.378906 424.855469 476.917969 431.679688 470.898438 436.136719 C 466.875 439.113281 463.882812 442.542969 461.210938 446.710938 C 457.398438 452.648438 451.621094 456.65625 445.359375 459.746094 C 431.617188 466.550781 418.066406 473.699219 404.695312 481.195312 C 403.230469 482.015625 402.378906 482.742188 402.617188 484.609375 C 403.101562 488.453125 402.667969 492.21875 400.734375 495.679688 C 399.722656 497.515625 400.992188 497.644531 402.234375 497.949219 C 418.886719 501.921875 435.542969 505.898438 452.183594 509.90625 C 475.261719 515.457031 498.304688 521.058594 521.398438 526.5625 C 523.425781 527.042969 524.054688 527.816406 524.023438 529.957031 C 523.84375 539.273438 523.84375 548.609375 523.925781 557.925781 C 523.941406 560.113281 523.394531 561.210938 521.207031 562.125 C 505.097656 568.804688 489.070312 575.644531 473.039062 582.5 C 470.753906 583.480469 468.582031 584.253906 466.136719 583.207031 C 464.6875 582.597656 463.882812 582.964844 463.882812 584.703125 C 463.882812 585.925781 463.5625 586.910156 462.144531 587.503906 C 442.914062 595.550781 423.699219 603.613281 404.550781 611.820312 C 401.316406 613.203125 398.386719 613.332031 395.039062 612.253906 C 387.023438 609.679688 378.898438 607.492188 370.851562 605.03125 C 369.257812 604.546875 367.972656 604.835938 366.554688 605.433594 C 351.121094 611.902344 335.671875 618.320312 320.257812 624.839844 C 318.195312 625.707031 316.296875 625.773438 314.171875 625.160156 C 269.949219 612.5625 225.726562 599.992188 181.488281 587.457031 C 153.152344 579.425781 124.796875 571.476562 96.457031 563.429688 C 91 561.886719 92.078125 563.074219 91.917969 557.523438 C 91.773438 554.335938 91.835938 551.117188 91.835938 547.917969 Z M 235.335938 454.675781 C 239.472656 456.734375 243.171875 458.230469 246.535156 460.308594 C 253.699219 464.71875 261.035156 463.976562 268.535156 461.675781 C 269.710938 461.304688 270.691406 460.757812 271.140625 459.457031 C 272.976562 454.273438 271.300781 451.085938 265.925781 451.265625 C 258.558594 451.503906 253.359375 448.0625 248.628906 443.121094 C 246.375 440.773438 246.390625 439.308594 249.191406 437.761719 C 256 433.996094 263.417969 433.257812 269.644531 439.371094 C 272.703125 442.382812 275.566406 445.664062 279.347656 447.867188 C 282.308594 449.589844 284.5625 448.304688 284.59375 444.890625 C 284.628906 441.882812 283.019531 439.597656 281.039062 437.503906 C 275.597656 431.726562 268.40625 428.910156 261.4375 425.5625 C 253.617188 421.816406 245.667969 419.835938 237.023438 421.042969 C 233.824219 421.492188 230.957031 421.6875 227.5625 420.429688 C 218.921875 417.226562 210.101562 414.589844 202.328125 409.40625 C 196.148438 405.289062 191.046875 399.878906 184.949219 395.164062 C 190.019531 395.359375 194.476562 397 199.53125 398.160156 C 198.949219 397.515625 198.804688 397.226562 198.5625 397.097656 C 186.960938 390.882812 174.859375 388.90625 162.417969 394.007812 C 152.039062 398.269531 151.816406 397.417969 157.574219 408.378906 C 159.652344 412.320312 163.015625 415.296875 166.058594 418.515625 C 160.585938 415.667969 155.773438 412.03125 151.78125 407.300781 C 152.925781 410.40625 154.324219 413.238281 156.386719 415.746094 C 162.453125 423.132812 170.417969 427.882812 178.945312 431.792969 C 190.261719 436.988281 202.070312 440.789062 213.964844 444.375 C 216.203125 445.050781 217.246094 446 217.28125 448.449219 C 217.34375 453.179688 218.40625 457.8125 219.917969 462.273438 C 221.898438 468.082031 224.230469 473.730469 229.703125 477.351562 C 233.484375 479.84375 237.425781 481.984375 241.515625 483.917969 C 244.007812 485.089844 247.808594 484.238281 249.191406 482.289062 C 249.835938 481.390625 250.332031 480.503906 248.597656 480.246094 C 241.871094 479.28125 237.332031 474.484375 232.230469 470.71875 C 231.3125 470.042969 230.507812 469.128906 231.101562 467.644531 C 236.558594 470.316406 241.789062 473.039062 247.164062 475.46875 C 251.734375 477.542969 257.640625 475.050781 258.878906 470.847656 C 259.265625 469.5625 259.121094 469.0625 257.625 469.078125 C 255.242188 469.128906 252.746094 469.320312 250.574219 468.046875 C 247.035156 465.972656 243.496094 463.878906 240.355469 461.210938 C 238.425781 459.550781 236.445312 457.910156 235.335938 454.675781 Z M 355.324219 466.3125 C 355.613281 467.792969 355.128906 468.46875 354.855469 469.191406 C 352.875 474.566406 350.09375 479.554688 347.695312 484.738281 C 345.488281 489.484375 345.925781 494.328125 347.613281 499.074219 C 348.546875 501.699219 350.960938 502.777344 354.019531 502.292969 C 356.785156 501.84375 355.773438 499.542969 356.046875 497.964844 C 356.417969 495.808594 355.902344 493.523438 356.949219 491.464844 C 359.859375 485.75 362.726562 480.003906 366.441406 474.757812 C 367.039062 473.90625 367.488281 472.796875 368.695312 472.523438 C 369.339844 473.246094 368.777344 473.875 368.582031 474.503906 C 367.199219 479.007812 365.507812 483.402344 363.480469 487.664062 C 361.628906 491.542969 360.570312 495.519531 361.164062 499.863281 C 361.597656 503.050781 363.160156 504.722656 365.992188 505.046875 C 369.273438 505.433594 370.207031 503.324219 370.660156 500.78125 C 372.011719 493.023438 375.808594 486.296875 379.542969 479.554688 C 380.167969 478.429688 380.75 477.15625 382.519531 476.449219 C 381.761719 481.050781 380.234375 484.945312 378.671875 488.824219 C 377.351562 492.089844 376.164062 495.390625 376.273438 498.980469 C 376.324219 500.683594 376.164062 502.582031 378.351562 503.148438 C 380.621094 503.726562 382.792969 503.484375 384.226562 501.3125 C 384.867188 500.316406 385.351562 499.1875 385.835938 498.09375 C 387.683594 493.878906 389.488281 489.628906 391.320312 485.414062 C 391.644531 484.671875 391.722656 483.433594 393.109375 484.207031 C 394.925781 485.21875 395.425781 483.949219 395.796875 482.613281 C 396.472656 480.183594 395.730469 478.027344 394.234375 476.144531 C 392.964844 474.550781 391.546875 473.085938 390.164062 471.523438 C 391.902344 470.542969 393.496094 469.691406 395.039062 468.789062 C 407.65625 461.355469 420.09375 453.679688 431.117188 443.941406 C 439.117188 436.878906 445.523438 428.671875 449.289062 418.53125 C 450.074219 416.390625 449.867188 415.214844 447.839844 413.882812 C 436.332031 406.269531 421.832031 406.992188 410.230469 415.8125 C 402.378906 421.78125 396.664062 429.667969 390.582031 437.246094 C 384.609375 444.683594 378.382812 451.859375 370.851562 457.796875 C 368.597656 459.566406 366.28125 460.46875 363.386719 460.195312 C 358.992188 459.777344 354.582031 459.632812 350.1875 459.34375 C 347.535156 459.164062 345.523438 460.242188 344.074219 462.417969 C 341.113281 466.824219 338.378906 471.394531 335.160156 475.613281 C 331.425781 480.535156 331.085938 485.621094 333.339844 491.125 C 333.53125 491.59375 333.53125 492.15625 333.804688 492.542969 C 335.140625 494.375 334.804688 497.882812 339.214844 496.453125 C 341.449219 495.726562 342.304688 495.148438 342.09375 493.152344 C 341.355469 486.105469 344.105469 480.328125 348.289062 474.953125 C 350.460938 472.199219 352.214844 469.046875 355.324219 466.3125 Z M 145.039062 519.882812 C 145.328125 520.589844 145.972656 520.574219 146.550781 520.71875 C 175.199219 528.316406 203.730469 536.363281 231.875 545.648438 C 232.9375 546 234.707031 546.128906 234.144531 547.773438 C 233.628906 549.285156 232.277344 548.078125 231.394531 547.851562 C 201.105469 539.839844 170.835938 531.777344 140.566406 523.714844 C 135.851562 522.457031 135.335938 522.570312 131.183594 525.597656 C 132.566406 526.015625 133.789062 526.402344 135.03125 526.753906 C 151.605469 531.421875 168.179688 536.074219 184.757812 540.753906 C 210.859375 548.125 236.800781 556.074219 263.046875 562.964844 C 265.847656 563.703125 268.613281 564.589844 271.414062 565.394531 C 272.671875 565.746094 272.929688 566.695312 272.71875 567.742188 C 272.429688 569.160156 271.449219 568.210938 270.851562 568.046875 C 247.246094 561.738281 223.636719 555.480469 200.078125 549.027344 C 174.683594 542.074219 149.335938 535.011719 124.023438 527.785156 C 120.191406 526.691406 117.730469 528.523438 114.191406 530.148438 C 116.234375 530.777344 117.554688 531.226562 118.890625 531.597656 C 129.496094 534.558594 140.117188 537.472656 150.71875 540.449219 C 184.464844 549.945312 218.195312 559.453125 251.925781 568.949219 C 276.210938 575.789062 300.589844 582.289062 324.714844 589.660156 C 330.492188 591.429688 334.257812 589.5 339.292969 587.117188 C 337.332031 586.457031 336.042969 585.925781 334.691406 585.558594 C 317.214844 580.746094 299.738281 575.949219 282.277344 571.105469 C 280.992188 570.753906 278.625 570.863281 279.316406 568.660156 C 279.929688 566.730469 281.777344 568.242188 282.824219 568.53125 C 302.601562 573.988281 322.492188 579.039062 342.09375 585.140625 C 343.058594 585.445312 343.878906 585.832031 344.941406 585.300781 C 347.46875 584.027344 350.074219 582.902344 352.957031 581.582031 C 348.871094 579.507812 344.652344 578.992188 340.742188 577.558594 C 339.617188 577.15625 338.523438 576.804688 339.054688 575.339844 C 339.550781 573.9375 340.644531 574.9375 341.320312 575.113281 C 346.457031 576.433594 351.574219 577.832031 356.691406 579.296875 C 357.6875 579.585938 358.605469 579.796875 359.601562 579.378906 C 362.417969 578.203125 365.234375 577.027344 368.082031 575.835938 C 367.632812 575.046875 367.023438 575 366.441406 574.824219 C 356.578125 571.796875 346.566406 569.273438 336.589844 566.679688 C 306.640625 558.875 276.726562 550.941406 246.761719 543.234375 C 231.34375 539.257812 215.816406 535.71875 200.367188 531.839844 C 183.664062 527.640625 167.007812 523.292969 150.335938 518.980469 C 148.417969 518.484375 146.601562 518.339844 145.039062 519.882812 Z M 180.878906 322.121094 C 177.160156 321.316406 174.34375 319.675781 171.578125 317.90625 C 170.882812 317.453125 170.242188 316.457031 169.53125 317.953125 C 166.894531 323.519531 164.207031 329.074219 161.4375 334.851562 C 163.433594 334.65625 165.105469 334.449219 166.78125 334.367188 C 168.582031 334.285156 170.386719 334.285156 172.1875 334.320312 C 173.796875 334.351562 175.40625 334.449219 177.464844 335.21875 C 166.523438 338.230469 159.652344 344.796875 155.855469 355.191406 C 168.488281 351.585938 180.75 349.253906 194.105469 353.953125 C 190.390625 348.175781 186.316406 344.136719 180.574219 341.078125 C 190.757812 340.722656 198.53125 344.585938 205.257812 351.121094 C 202.492188 341.449219 195.84375 334.800781 187.957031 328.203125 C 193.09375 329.425781 197.46875 330.457031 202.023438 332.949219 C 198.644531 325.710938 194.21875 319.882812 190.679688 313.511719 C 196.472656 316.664062 202.425781 319.320312 207.738281 323.828125 C 207.351562 314.75 204.664062 306.558594 202.457031 297.546875 C 203.359375 298.351562 203.648438 298.609375 203.9375 298.851562 C 206.640625 301.214844 206.59375 301.199219 207.558594 297.773438 C 208.832031 293.265625 208.878906 288.632812 208.78125 283.449219 C 209.296875 284.191406 209.507812 284.382812 209.601562 284.640625 C 215.234375 298.238281 218.777344 312.351562 220.53125 326.964844 C 221.738281 337.101562 222.558594 347.304688 224.648438 357.316406 C 225.566406 361.660156 227.046875 365.8125 229.15625 369.738281 C 229.414062 368.597656 229.476562 367.519531 229.398438 366.441406 C 228.175781 349.960938 227.867188 333.464844 226.210938 316.988281 C 223.972656 294.699219 223.476562 272.203125 221.832031 249.816406 C 221.6875 247.773438 221.269531 247.144531 219.257812 247.949219 C 208.414062 252.261719 198.5625 258.007812 190.839844 266.988281 C 184.0625 274.855469 181.925781 283.515625 185.496094 293.492188 C 187.265625 298.433594 189.839844 302.824219 193.640625 307.492188 C 187.796875 304.917969 182.617188 302.859375 178.320312 299.171875 C 176.984375 298.03125 176.5 298.433594 176.210938 299.863281 C 176.066406 300.554688 175.921875 301.230469 175.824219 301.925781 C 174.890625 309.132812 176.582031 315.746094 180.878906 322.121094 Z M 400.6875 361.066406 C 408.6875 353.308594 417.746094 350.28125 427.980469 350.476562 C 437.8125 350.652344 447.597656 351.105469 456.191406 357.058594 C 451.941406 347.144531 443.800781 341.414062 434.144531 336.492188 C 437.539062 336.21875 440.210938 336.441406 442.898438 336.589844 C 445.554688 336.734375 448.03125 337.648438 451.121094 338.726562 C 447.917969 331.566406 444.941406 325.113281 442.140625 318.582031 C 441.160156 316.277344 440.582031 315.441406 438.214844 317.519531 C 434.046875 321.171875 427.03125 324.710938 423.636719 325.257812 C 424.777344 324.359375 425.503906 323.957031 426.015625 323.359375 C 432.085938 316.3125 436.703125 308.585938 435.140625 298.851562 C 433.128906 286.25 428.398438 274.761719 419.597656 265.265625 C 412.289062 257.378906 402.972656 252.535156 393.21875 248.382812 C 390.824219 247.355469 390.035156 247.5 389.855469 250.363281 C 388.648438 269.5625 387.074219 288.746094 386.074219 307.941406 C 385.558594 317.90625 385.980469 327.914062 385.980469 337.425781 C 387.167969 333.964844 388.121094 329.8125 389.070312 325.675781 C 390.050781 321.378906 391.0625 317.101562 392.160156 312.835938 C 393.21875 308.667969 394.296875 304.5 395.570312 300.378906 C 396.859375 296.164062 398.226562 291.964844 399.835938 287.875 C 401.363281 283.996094 402.957031 280.101562 405.515625 276.691406 C 403.472656 286.476562 404.148438 296.386719 403.277344 306.734375 C 407.222656 303.308594 410.714844 300.265625 414.65625 296.824219 C 412.484375 304.917969 410.039062 312.207031 406.964844 319.738281 C 411.261719 317.519531 415.042969 315.570312 419.386719 313.316406 C 413.933594 320.847656 409.617188 328.25 406.707031 336.8125 C 409.007812 336.089844 410.792969 335.492188 412.597656 334.960938 C 414.414062 334.429688 416.25 333.996094 418.066406 333.515625 C 408.667969 340.175781 403.039062 349.011719 400.6875 361.066406 Z M 422.542969 531.117188 C 422.542969 530.890625 422.558594 530.679688 422.558594 530.457031 C 414.574219 528.574219 406.59375 526.722656 398.628906 524.792969 C 396.617188 524.292969 396.230469 525.371094 396.550781 526.835938 C 397.871094 532.886719 395.023438 535.910156 389.390625 537.023438 C 389.292969 537.039062 389.199219 537.070312 389.117188 537.132812 C 384.464844 539.949219 379.734375 539.691406 374.503906 538.484375 C 317.921875 525.355469 261.292969 512.449219 204.679688 499.445312 C 181.359375 494.085938 158.027344 488.742188 134.757812 483.160156 C 130.605469 482.160156 127.707031 484.0625 124.375 485.492188 C 124.730469 486.183594 125.214844 486.3125 125.710938 486.410156 C 130.894531 487.554688 136.078125 488.648438 141.242188 489.855469 C 172.058594 497.015625 202.859375 504.175781 233.660156 511.371094 C 260.761719 517.695312 287.847656 524.082031 314.945312 530.40625 C 336.878906 535.523438 358.816406 540.609375 380.765625 545.695312 C 382.519531 546.097656 384.289062 546.484375 386.074219 545.761719 C 398.210938 540.867188 410.375 535.992188 422.542969 531.117188 Z M 249.609375 206.671875 C 249.449219 214.363281 251.234375 223.585938 253.859375 230.152344 C 255.933594 235.332031 259.523438 238.824219 264.800781 240.515625 C 282.984375 246.355469 301.25 246.210938 319.546875 241.160156 C 324.890625 239.679688 330.074219 237.714844 334.757812 234.625 C 324.601562 236.410156 314.414062 237.34375 304.132812 237.214844 C 315.476562 234.898438 326.710938 232.308594 337.105469 226.851562 C 322.816406 229.441406 308.460938 229.441406 294.042969 228.636719 C 307.609375 226.882812 321.207031 225.257812 333.824219 219.417969 C 332.664062 219.367188 331.519531 219.417969 330.378906 219.59375 C 312.289062 222.394531 294.21875 222.363281 276.273438 218.628906 C 266.699219 216.617188 257.269531 213.929688 249.609375 206.671875 Z M 325.035156 592.945312 C 323.410156 592.378906 322.589844 592.042969 321.738281 591.800781 C 292.722656 583.691406 263.691406 575.578125 234.660156 567.515625 C 212.566406 561.386719 190.453125 555.367188 168.375 549.171875 C 149.769531 543.941406 131.136719 538.808594 112.53125 533.625 C 106.996094 532.082031 103.570312 534.976562 98.933594 536.828125 C 99.675781 537.296875 99.882812 537.503906 100.140625 537.570312 C 141.597656 549.15625 183.050781 560.757812 224.519531 572.3125 C 252.78125 580.183594 281.121094 587.777344 309.265625 595.984375 C 315.300781 597.738281 319.566406 595.421875 325.035156 592.945312 Z M 260.679688 164.058594 C 260.554688 164.636719 260.425781 165.203125 260.3125 165.78125 C 257.882812 178.15625 258.074219 190.464844 261.195312 202.714844 C 261.921875 205.578125 263.433594 207.378906 266.265625 208.472656 C 268.710938 209.425781 269.453125 209.246094 269.4375 206.398438 C 269.371094 198.335938 270.273438 190.386719 273.441406 182.855469 C 274.570312 180.183594 275.871094 177.609375 278.207031 175.082031 C 278.671875 186.089844 279.765625 196.4375 281.585938 206.71875 C 282.375 183.691406 284.660156 160.757812 285.433594 137.746094 C 282.582031 141.867188 281.988281 146.726562 280.25 151.183594 C 280.234375 148.238281 280.425781 145.34375 280.621094 142.445312 C 280.863281 138.875 280.8125 138.839844 277.609375 140.160156 C 258.121094 148.144531 245.121094 170.867188 248.046875 191.867188 C 248.515625 195.261719 250.734375 197.691406 253.003906 200.15625 C 252.152344 187.394531 253.570312 175.195312 260.679688 164.058594 Z M 287.410156 209.9375 C 288.359375 209.183594 288.28125 208.457031 288.378906 207.816406 C 289.40625 199.976562 290.308594 192.109375 291.515625 184.289062 C 292.351562 178.847656 293.496094 173.425781 296.246094 168.53125 C 297.695312 165.972656 299.65625 163.960938 302.8125 163.996094 C 305.980469 164.027344 307.929688 166.085938 309.25 168.710938 C 310.132812 170.496094 310.875 172.378906 311.453125 174.292969 C 313.449219 180.921875 314.59375 187.746094 315.492188 194.601562 C 315.992188 198.382812 316.539062 202.167969 317.152344 206.558594 C 317.601562 205.738281 317.746094 205.578125 317.761719 205.417969 C 319.179688 182.066406 318.421875 158.730469 317.359375 135.398438 C 317.28125 133.757812 316.441406 133.175781 315.027344 132.824219 C 307.609375 130.972656 300.171875 130.90625 292.691406 132.4375 C 290.242188 132.933594 289.019531 133.996094 288.796875 136.78125 C 287.105469 157.476562 286.429688 178.203125 286.734375 198.964844 C 286.769531 202.519531 287.152344 206.058594 287.410156 209.9375 Z M 125.582031 507.589844 C 126.917969 505.5625 126.371094 503.484375 126.339844 501.601562 C 126.292969 499.109375 127.160156 498.800781 129.347656 499.347656 C 141.113281 502.261719 152.894531 505.0625 164.671875 507.910156 C 214.996094 520.078125 265.363281 532.015625 315.558594 544.761719 C 333.515625 549.316406 351.332031 554.417969 369.484375 558.230469 C 371.269531 558.601562 372.703125 559.308594 372.027344 561.371094 C 371.367188 563.332031 369.839844 561.980469 368.742188 561.738281 C 359.957031 559.792969 351.1875 557.734375 342.382812 555.800781 C 337.847656 554.804688 333.257812 554.015625 328.6875 553.128906 C 328.832031 553.695312 329.058594 553.886719 329.316406 553.96875 C 344.300781 558.699219 359.410156 563.011719 374.554688 567.210938 C 376.128906 567.644531 376.226562 566.96875 376.226562 565.78125 C 376.210938 562.671875 376.097656 559.550781 376.324219 556.460938 C 376.484375 554.257812 375.597656 553.582031 373.585938 553.128906 C 364.703125 551.117188 355.851562 548.945312 346.988281 546.839844 C 305.097656 536.878906 263.144531 527.109375 221.078125 517.886719 C 190.664062 511.226562 160.261719 504.386719 130.058594 496.804688 C 124.265625 495.359375 124.183594 495.40625 124.472656 501.472656 C 124.554688 503.421875 124.007812 505.59375 125.582031 507.589844 Z M 207.542969 376.640625 C 206.417969 373.214844 204.230469 370.640625 201.652344 368.417969 C 189.664062 357.992188 169.597656 355.835938 155.628906 363.332031 C 148.675781 367.066406 145.457031 373.132812 144.300781 380.8125 C 151.492188 374.921875 154.261719 373.246094 158.089844 372.523438 C 150.914062 377.722656 146.632812 384.625 143.929688 393.105469 C 162.566406 377.558594 182.328125 377.722656 203.296875 387.441406 C 199.867188 378.460938 193.078125 373.152344 184.371094 368.597656 C 193.316406 369.609375 200.914062 371.671875 207.542969 376.640625 Z M 469.226562 401.667969 C 468.597656 391.449219 464.445312 384.800781 455.886719 380.3125 C 442.140625 373.085938 428.175781 372.070312 414.1875 379.554688 C 409.570312 382.035156 406.144531 385.832031 404.003906 390.773438 C 412.242188 384.816406 421.351562 382.417969 431.746094 382.984375 C 419.484375 388.453125 413.207031 393.75 410.859375 400.28125 C 431.28125 391.078125 449.417969 392.863281 464.078125 412.015625 C 463.933594 403.113281 460.34375 396.195312 454.066406 390.417969 C 459.875 393.074219 465.105469 396.371094 469.226562 401.667969 Z M 316.988281 431.019531 C 317.875 431.148438 318.230469 431.277344 318.582031 431.246094 C 327.917969 430.472656 336.269531 427.191406 343.574219 421.285156 C 344.796875 420.300781 345.105469 419.0625 345.105469 417.582031 C 345.121094 401.359375 345.121094 385.125 345.25 368.902344 C 345.265625 366.988281 344.71875 366.550781 342.914062 366.570312 C 336.511719 366.664062 330.089844 366.617188 323.683594 366.617188 C 305.546875 366.632812 287.425781 366.617188 269.292969 366.664062 C 268.101562 366.664062 266.441406 365.941406 266.476562 368.46875 C 266.621094 380.683594 266.585938 392.914062 266.652344 405.125 C 266.652344 406.222656 266.234375 407.941406 268.050781 407.847656 C 269.984375 407.75 269.082031 405.949219 269.082031 404.980469 C 269.195312 394.972656 269.195312 384.945312 269.242188 374.9375 C 269.257812 371.332031 269.257812 371.394531 272.589844 372.199219 C 295.394531 377.785156 318.164062 378.171875 340.871094 371.734375 C 343.476562 370.992188 344.121094 371.574219 344.105469 374.179688 C 344.042969 385.492188 344.171875 396.824219 344.152344 408.136719 C 344.136719 420.738281 343.558594 421.507812 331.554688 425.964844 C 331.183594 426.113281 330.796875 426.222656 330.410156 426.351562 C 326.128906 427.847656 321.800781 429.347656 316.988281 431.019531 Z M 328.027344 501.167969 C 324.296875 495.292969 322.074219 489.066406 319.710938 482.917969 C 319.164062 481.484375 318.003906 479.765625 321.046875 479.765625 C 321.996094 479.765625 322.347656 478.894531 322.574219 478.121094 C 324.246094 472.554688 327.722656 468.433594 332.855469 465.796875 C 334.949219 464.71875 335.0625 463.945312 333.371094 462.191406 C 320.433594 448.785156 306.949219 435.929688 293.476562 423.070312 C 289.648438 419.402344 288.972656 419.449219 284.320312 422.875 C 298.339844 437.261719 313.257812 450.683594 327.738281 464.910156 C 323.714844 466.40625 320.03125 467.679688 316.441406 469.160156 C 314.816406 469.835938 314.09375 469.382812 313.496094 467.886719 C 312.597656 465.667969 311.632812 463.460938 310.535156 461.320312 C 306.273438 452.921875 296.746094 450.425781 288.890625 455.609375 C 288.457031 455.898438 287.699219 456.042969 287.976562 456.878906 C 300.042969 457.28125 305.355469 460.613281 311.246094 471.21875 C 315.894531 479.601562 318.582031 488.726562 321.335938 497.835938 C 322.816406 502.617188 322.765625 502.632812 328.027344 501.167969 Z M 302.363281 319.09375 C 295.746094 307.863281 287.445312 297.964844 278.882812 288.277344 C 272.058594 280.570312 265.976562 272.410156 263.0625 262.320312 C 262.628906 260.808594 261.566406 259.761719 260.375 258.796875 C 258.171875 257.027344 256.289062 254.980469 255.082031 252.359375 C 254.664062 251.441406 254.777344 249.703125 253.277344 250.058594 C 251.6875 250.429688 252.410156 252.085938 252.441406 253.148438 C 252.828125 262.257812 253.296875 271.363281 253.761719 280.472656 C 254.035156 285.636719 254.355469 290.820312 254.679688 296.515625 C 259.796875 293.589844 264.542969 291.046875 269.113281 288.214844 C 271.269531 286.863281 272.460938 286.765625 274.039062 289.128906 C 281.761719 300.71875 291.804688 310.164062 302.363281 319.09375 Z M 514.238281 536.78125 C 514.222656 536.539062 514.222656 536.3125 514.207031 536.074219 C 511.839844 535.378906 509.472656 534.625 507.074219 534.027344 C 469.757812 524.855469 432.4375 515.699219 395.136719 506.511719 C 393.460938 506.09375 391.964844 506.285156 390.484375 507.023438 C 389.664062 507.425781 388.777344 507.863281 388.941406 508.972656 C 389.085938 509.96875 390.019531 510.066406 390.773438 510.261719 C 393.976562 511.066406 397.195312 511.820312 400.382812 512.640625 C 435.65625 521.605469 470.949219 530.570312 506.222656 539.582031 C 506.980469 539.773438 507.574219 539.710938 508.21875 539.417969 C 510.214844 538.535156 512.226562 537.648438 514.238281 536.78125 Z M 292.144531 322.296875 C 292.496094 321.269531 291.980469 320.832031 291.644531 320.382812 C 285.335938 311.835938 276.886719 305.511719 269.082031 298.511719 C 268.292969 297.804688 267.425781 297.949219 266.554688 298.335938 C 263.546875 299.703125 260.570312 301.085938 257.558594 302.457031 C 256.578125 302.90625 255.886719 303.4375 256.03125 304.707031 C 256.660156 309.777344 256.753906 314.878906 256.5625 319.980469 C 256.480469 322.054688 257.574219 322.394531 259.363281 322.378906 C 266.554688 322.296875 273.765625 322.328125 280.957031 322.328125 C 284.738281 322.296875 288.488281 322.296875 292.144531 322.296875 Z M 166.988281 569.546875 C 169.789062 570.542969 172.574219 571.605469 175.40625 572.523438 C 196.503906 579.457031 217.921875 585.347656 239.277344 591.429688 C 263.707031 598.398438 288.121094 605.464844 312.804688 611.515625 C 313.5625 611.707031 314.847656 612.898438 315.332031 611.371094 C 315.78125 609.9375 314.253906 609.96875 313.386719 609.695312 C 302.425781 606.21875 291.484375 602.648438 280.425781 599.445312 C 253.246094 591.558594 226.066406 583.609375 198.707031 576.367188 C 188.28125 573.585938 177.835938 570.929688 166.988281 569.546875 Z M 321.414062 321.636719 C 321.558594 321.878906 321.6875 322.121094 321.832031 322.378906 C 332.117188 322.378906 342.417969 322.347656 352.699219 322.410156 C 354.664062 322.425781 355.066406 321.507812 355.050781 319.851562 C 355.015625 316.550781 354.773438 313.222656 355.195312 309.96875 C 355.757812 305.527344 354.757812 302.4375 349.964844 301.425781 C 349.304688 301.28125 348.660156 300.878906 348.097656 300.492188 C 346.488281 299.367188 345.28125 299.847656 343.914062 301.105469 C 337.941406 306.574219 331.890625 311.949219 325.890625 317.390625 C 324.359375 318.757812 322.910156 320.207031 321.414062 321.636719 Z M 389.277344 512.527344 C 390.292969 513.898438 391.757812 513.800781 393.042969 514.171875 C 393.992188 514.445312 395.25 514.460938 395.394531 515.652344 C 395.632812 517.566406 397.003906 517.613281 398.402344 517.902344 C 409.152344 520.222656 419.902344 522.585938 430.652344 524.921875 C 431.941406 525.195312 433.355469 525.355469 433.210938 527.207031 C 433.035156 529.265625 434.351562 529.523438 435.980469 529.894531 C 454.515625 534.109375 472.863281 539.082031 491.144531 544.230469 C 495.859375 545.566406 498.386719 542.75 501.910156 541.609375 C 464.382812 531.40625 426.691406 522.457031 389.277344 512.527344 Z M 270.257812 478.234375 C 271.175781 477.125 272.058594 476 272.992188 474.902344 C 280.28125 466.328125 291.015625 465.378906 299.609375 472.601562 C 306.09375 478.042969 308.894531 485.542969 310.617188 493.460938 C 311.742188 498.625 312.195312 503.953125 313.128906 509.164062 C 314.09375 514.636719 317.296875 518.082031 322.847656 519.289062 C 329.878906 520.816406 336.894531 522.472656 343.929688 524.050781 C 344.667969 524.210938 345.472656 524.757812 346.132812 523.953125 C 347.277344 522.570312 345.910156 518.675781 344.121094 518.242188 C 337.796875 516.714844 331.472656 515.199219 325.148438 513.671875 C 320.464844 512.546875 317.730469 509.566406 316.765625 504.902344 C 316.539062 503.824219 316.328125 502.746094 316.074219 501.667969 C 313.851562 492.1875 311.46875 482.742188 305.949219 474.535156 C 301.378906 467.742188 295.410156 463.125 286.671875 464.28125 C 278.351562 465.363281 273.363281 470.785156 270.257812 478.234375 Z M 293.863281 268.179688 C 293.816406 271.75 295.214844 273.441406 299.304688 275.015625 C 303.9375 276.820312 309.136719 275.597656 312.324219 271.945312 C 311.871094 271.523438 311.421875 271.816406 310.972656 271.925781 C 307.109375 272.894531 306.804688 272.730469 305.546875 269.03125 C 304.210938 265.105469 303.714844 261.066406 303.601562 256.945312 C 303.570312 255.898438 304.390625 254.355469 302.683594 253.871094 C 300.882812 253.355469 299.996094 254.484375 299.335938 256.042969 C 297.46875 260.4375 293.945312 262.835938 289.457031 264.042969 C 285.433594 265.136719 281.359375 265.28125 277.257812 264.667969 C 275.488281 264.414062 274.84375 264.703125 275.40625 266.648438 C 276.597656 270.703125 278.207031 274.566406 280.21875 278.253906 C 280.507812 278.78125 280.652344 279.84375 281.632812 279.058594 C 285.449219 276.015625 290.164062 275.113281 294.941406 273.683594 C 293.238281 272.054688 291.789062 270.558594 293.863281 268.179688 Z M 329.476562 140.902344 C 350.382812 155.53125 357.011719 175.96875 353.953125 200.734375 C 357.703125 198.175781 359.828125 195.132812 359.925781 191.09375 C 360.296875 176.59375 356.949219 163.269531 346.730469 152.390625 C 341.917969 147.257812 336.316406 143.171875 329.476562 140.902344 Z M 141.5625 479.152344 C 144.089844 480.730469 146.054688 480.117188 148.179688 479.378906 C 158.378906 475.855469 168.632812 472.441406 178.867188 469 C 179.785156 468.691406 180.957031 468.015625 181.199219 469.625 C 181.457031 471.265625 182.617188 471.265625 183.808594 471.523438 C 191.226562 473.167969 198.691406 474.648438 206.03125 476.609375 C 209.667969 477.589844 212.113281 475.597656 215.058594 474.664062 C 214.671875 474.148438 214.335938 473.953125 213.964844 473.84375 C 204.050781 470.65625 193.753906 468.949219 183.757812 466.070312 C 181.34375 465.378906 179.109375 465.472656 176.742188 466.328125 C 167.328125 469.722656 157.882812 472.972656 148.453125 476.335938 C 146.246094 477.109375 144.121094 478.089844 141.5625 479.152344 Z M 328.640625 260.179688 C 337.589844 260.246094 344.300781 255.882812 346.488281 248.753906 C 347.148438 246.613281 346.648438 246.035156 344.476562 246.613281 C 335.078125 249.125 325.488281 250.539062 315.800781 251.167969 C 313.851562 251.296875 313.882812 251.859375 314.785156 253.277344 C 318.019531 258.394531 322.992188 259.9375 328.640625 260.179688 Z M 165.253906 484.320312 C 165.574219 484.722656 165.671875 484.960938 165.816406 484.996094 C 177.515625 487.683594 189.230469 490.320312 200.929688 493.023438 C 203.117188 493.539062 203.859375 492.734375 203.632812 490.625 C 203.550781 489.839844 203.535156 489.015625 203.648438 488.230469 C 203.953125 486.121094 203.023438 485.316406 200.992188 484.847656 C 194.558594 483.386719 188.167969 481.695312 181.761719 480.101562 C 180.1875 479.714844 178.542969 479.363281 177.015625 479.910156 C 173.105469 481.261719 169.242188 482.804688 165.253906 484.320312 Z M 489.679688 546.566406 C 488.214844 546.066406 487.507812 545.777344 486.75 545.566406 C 469.757812 541.046875 452.761719 536.539062 435.769531 532.03125 C 434.882812 531.792969 433.515625 531.082031 433.582031 532.804688 C 433.644531 534.316406 432.308594 536.457031 435.238281 537.152344 C 441.757812 538.679688 448.289062 540.207031 454.695312 542.105469 C 463.320312 544.664062 472.523438 545.359375 480.476562 550.136719 C 480.796875 550.332031 481.457031 550.121094 481.875 549.945312 C 484.257812 548.929688 486.621094 547.882812 489.679688 546.566406 Z M 358.414062 236.394531 C 357.042969 238.421875 356.65625 240.738281 356.304688 243.074219 C 354.4375 255.144531 353.664062 267.375 350.847656 279.3125 C 349.175781 286.410156 349.160156 286.410156 354.886719 290.820312 C 355.417969 291.222656 355.851562 292.109375 356.609375 291.785156 C 357.511719 291.414062 357.171875 290.386719 357.207031 289.644531 C 357.511719 284.449219 357.800781 279.25 358.011719 274.035156 C 358.460938 261.515625 359.023438 249.011719 358.414062 236.394531 Z M 260.921875 246.371094 C 262.226562 251.054688 264.320312 254.433594 267.890625 256.574219 C 273.265625 259.792969 279.1875 260.566406 285.289062 259.457031 C 288.859375 258.8125 291.789062 256.929688 293.589844 253.582031 C 294.347656 252.183594 294.363281 251.378906 292.417969 251.359375 C 281.859375 251.296875 271.480469 250.15625 260.921875 246.371094 Z M 466.183594 558.375 C 465.960938 556.640625 467.167969 556.011719 468.355469 555.449219 C 470.078125 554.644531 471.867188 553.984375 473.585938 553.210938 C 474.359375 552.875 475.664062 552.9375 475.664062 551.859375 C 475.664062 550.765625 474.359375 550.78125 473.570312 550.523438 C 460.921875 546.386719 448 543.21875 435.207031 539.582031 C 434.464844 539.371094 433.742188 538.953125 433.386719 540.242188 C 432.535156 543.265625 433.453125 545.214844 436.558594 546.035156 C 444.683594 548.191406 452.8125 550.265625 460.953125 552.324219 C 465.652344 553.515625 465.652344 553.484375 466.183594 558.375 Z M 241.5 311.902344 C 241.5 311.933594 241.5 311.964844 241.5 312 C 237.992188 312 234.5 312.015625 230.992188 312 C 229.847656 312 229.285156 312.480469 229.445312 313.625 C 229.589844 314.621094 229.203125 316.472656 230.667969 316.199219 C 234.402344 315.492188 233.582031 317.90625 233.613281 319.882812 C 233.644531 321.074219 233.597656 322.296875 233.789062 323.472656 C 234.53125 327.898438 237.8125 330.519531 242.222656 330.3125 C 246.101562 330.117188 249.046875 327.0625 249.382812 322.78125 C 249.496094 321.285156 249.433594 319.789062 249.402344 318.289062 C 249.367188 317.132812 249.253906 316.085938 251.011719 316.230469 C 253.246094 316.425781 252.492188 314.605469 252.636719 313.480469 C 252.84375 311.789062 251.667969 311.886719 250.496094 311.902344 C 247.5 311.933594 244.507812 311.902344 241.5 311.902344 Z M 370.691406 311.917969 C 370.691406 311.949219 370.691406 311.980469 370.691406 312.015625 C 367.277344 312.015625 363.882812 312.03125 360.472656 312 C 359.328125 311.980469 358.734375 312.480469 358.910156 313.609375 C 359.070312 314.574219 358.429688 316.246094 360.101562 316.183594 C 362.5 316.085938 362.371094 317.4375 362.289062 319.03125 C 362.226562 320.335938 362.226562 321.636719 362.324219 322.941406 C 362.613281 327.171875 365.042969 329.878906 368.855469 330.28125 C 373.167969 330.730469 376.195312 328.671875 377.402344 324.4375 C 377.964844 322.492188 378.046875 320.480469 377.917969 318.484375 C 377.804688 316.792969 378.046875 315.78125 380.136719 316.199219 C 382.132812 316.601562 382.019531 315.089844 382.164062 313.753906 C 382.359375 311.949219 381.375 311.855469 379.992188 311.886719 C 376.902344 311.964844 373.796875 311.917969 370.691406 311.917969 Z M 300.042969 505.929688 C 300.703125 505.691406 300.898438 505.109375 301.15625 504.578125 C 304.210938 498.046875 302.457031 489.066406 297.019531 483.433594 C 292.65625 478.925781 286.863281 477.351562 282.035156 479.378906 C 276.515625 481.695312 272.269531 488.117188 272.316406 494.023438 C 279.011719 484.558594 283.550781 482.097656 290.148438 484.335938 C 297.40625 486.8125 300.429688 493.394531 300.042969 505.929688 Z M 345.730469 346.355469 C 319.417969 344.828125 293.074219 344.957031 266.75 346.242188 C 293.058594 348.015625 319.386719 347.644531 345.730469 346.355469 Z M 446.761719 362.433594 C 444.105469 358.617188 441.273438 355.609375 437.425781 353.710938 C 435.609375 352.824219 433.582031 352.375 431.617188 353.179688 C 425.40625 355.722656 421.125 360.324219 417.457031 366.488281 C 426.984375 361.226562 436.460938 360.355469 446.761719 362.433594 Z M 320.851562 138.085938 C 320.769531 159.859375 321.851562 181.566406 323.570312 203.261719 C 324.921875 181.421875 325.695312 159.632812 320.851562 138.085938 Z M 215.089844 575.082031 C 236.785156 582.964844 258.960938 589.160156 281.683594 593.328125 C 259.957031 585.605469 237.863281 579.167969 215.089844 575.082031 Z M 442.785156 566.214844 C 438.503906 564.796875 434.675781 564.121094 431.457031 562.351562 C 424.632812 558.585938 419.257812 562.222656 412.742188 565.167969 C 418.066406 566.601562 422.863281 567.371094 427.222656 569.207031 C 433.019531 571.636719 437.316406 568.757812 442.785156 566.214844 Z M 455.804688 561.242188 C 450.027344 559.214844 444.554688 558.25 439.519531 556.253906 C 434.609375 554.289062 431.488281 556.863281 427.449219 559.085938 C 434.0625 561.515625 440.5 562.898438 446.855469 564.589844 C 447.4375 564.75 448.210938 564.378906 448.851562 564.136719 C 450.976562 563.300781 453.085938 562.382812 455.804688 561.242188 Z M 289.90625 499.1875 C 289.839844 494.488281 286.878906 490.980469 282.953125 490.964844 C 279.347656 490.949219 276.53125 494.152344 276.597656 498.207031 C 276.660156 503.066406 279.878906 506.960938 283.808594 506.945312 C 287.425781 506.929688 289.96875 503.695312 289.90625 499.1875 Z M 401.878906 570.058594 C 407.992188 572.523438 414.222656 573.921875 420.289062 575.757812 C 420.691406 575.886719 421.269531 575.675781 421.703125 575.46875 C 423.84375 574.4375 425.96875 573.34375 428.59375 572.039062 C 424.183594 570.625 420.03125 569.722656 416.296875 567.984375 C 410.972656 565.488281 406.546875 566.859375 401.878906 570.058594 Z M 390.484375 574.484375 C 391.355469 575.675781 392.5625 575.691406 393.558594 576 C 397.484375 577.171875 401.574219 577.929688 405.339844 579.457031 C 409.78125 581.277344 412.789062 578.703125 416.25 576.980469 C 410.679688 574.742188 405.128906 572.84375 399.5625 570.929688 C 398.949219 570.71875 398.386719 570.816406 397.824219 571.074219 C 395.394531 572.214844 392.980469 573.328125 390.484375 574.484375 Z M 378.175781 579.957031 C 383.597656 581.566406 388.714844 582.660156 393.476562 584.609375 C 398.082031 586.476562 401.042969 583.738281 405.355469 581.855469 C 400.878906 580.421875 396.9375 579.746094 393.605469 577.945312 C 387.941406 574.871094 383.355469 577.078125 378.175781 579.957031 Z M 334.675781 290.242188 C 320.933594 297.339844 313.464844 309.183594 306.09375 321.089844 C 316.378906 311.820312 326.066406 302.003906 334.675781 290.242188 Z M 229.429688 411.789062 C 229.429688 404.339844 229.203125 397.449219 229.511719 390.59375 C 229.6875 386.554688 227.738281 383.691406 225.792969 380.535156 C 225.003906 381.246094 225.308594 381.96875 225.308594 382.613281 C 225.292969 389.695312 225.503906 396.789062 225.246094 403.871094 C 225.148438 407.28125 226.644531 409.4375 229.429688 411.789062 Z M 383.839844 507.652344 C 381.441406 511.046875 380.796875 514.589844 381.359375 519.851562 C 382.019531 525.855469 382.019531 525.871094 375.890625 525.660156 C 374.328125 525.613281 372.558594 525.886719 371.382812 524.519531 C 369.660156 522.472656 369.726562 522.425781 366.957031 522.457031 C 367.023438 522.652344 367.054688 522.859375 367.167969 523.019531 C 370.449219 527.558594 385.285156 528.394531 389.050781 524.246094 C 389.90625 523.3125 390.242188 522.152344 390.050781 520.914062 C 389.808594 519.382812 388.472656 519.5625 387.460938 519.480469 C 385.382812 519.304688 384.53125 518.304688 384.480469 516.214844 C 384.433594 513.527344 384.097656 510.871094 383.839844 507.652344 Z M 132.214844 516.214844 C 127.675781 515.105469 123.460938 514.089844 119.242188 513.058594 C 117.488281 512.625 115.574219 512.417969 115.894531 509.792969 C 116.007812 508.859375 115.363281 508.570312 114.511719 508.875 C 111.632812 509.90625 108.71875 510.824219 105.742188 512.578125 C 112.035156 514.300781 117.941406 515.746094 123.734375 517.566406 C 126.789062 518.546875 129.347656 518.160156 132.214844 516.214844 Z M 276.035156 420.222656 C 276 417.4375 274.761719 415.394531 272.125 413.976562 C 270.789062 413.269531 269.226562 412.527344 267.84375 413.15625 C 266.347656 413.847656 267.683594 415.457031 267.425781 416.632812 C 266.667969 419.980469 267.167969 422.363281 271.125 423.617188 C 274.90625 424.824219 276.097656 424.355469 276.035156 420.222656 Z M 182.617188 476.933594 C 182.085938 476.933594 181.488281 476.851562 181.378906 477.496094 C 181.183594 478.652344 182.214844 478.734375 182.90625 478.925781 C 189.246094 480.699219 195.601562 482.417969 201.960938 484.140625 C 202.585938 484.320312 203.390625 484.769531 203.632812 483.660156 C 203.828125 482.773438 204.003906 481.839844 202.714844 481.550781 C 200.769531 481.101562 198.835938 480.617188 196.890625 480.167969 C 192.125 479.089844 187.347656 478.011719 182.617188 476.933594 Z M 239.859375 491.0625 C 230.621094 488.421875 221.609375 484.703125 211.792969 484.847656 C 220.980469 487.777344 230.265625 490.128906 239.859375 491.0625 Z M 397.355469 599.589844 C 389.421875 595.535156 380.878906 593.492188 372.171875 591.945312 C 380.332031 595.261719 388.730469 597.820312 397.355469 599.589844 Z M 384.273438 409.183594 C 385.175781 403.46875 385.046875 397.738281 384.320312 392.011719 C 383.871094 397.738281 383.421875 403.453125 384.273438 409.183594 Z M 384.273438 409.183594 " fill-opacity="1" fill-rule="nonzero"/></g><path fill="#391b01" d="M 479.703125 465.105469 C 474.101562 465.105469 468.519531 465.121094 462.917969 465.085938 C 461.886719 465.085938 460.679688 465.296875 460.746094 463.476562 C 460.792969 461.804688 461.710938 461.835938 462.886719 461.835938 C 473.878906 461.902344 484.867188 461.949219 495.859375 462.03125 C 496.984375 462.03125 498.371094 461.722656 498.386719 463.671875 C 498.402344 465.652344 497.019531 465.28125 495.890625 465.28125 C 490.5 465.3125 485.09375 465.296875 479.703125 465.296875 C 479.703125 465.214844 479.703125 465.152344 479.703125 465.105469 Z M 479.703125 465.105469 " fill-opacity="1" fill-rule="nonzero"/><path fill="#391b01" d="M 433.195312 479.492188 C 437.121094 477.65625 439.890625 475.5 441.335938 471.960938 C 441.773438 470.914062 442.707031 471.347656 443.125 472.21875 C 444.574219 475.179688 446.632812 477.496094 449.707031 478.894531 C 450.71875 479.363281 450.71875 480.101562 449.640625 480.570312 C 446.695312 481.839844 444.332031 483.691406 443.011719 486.714844 C 442.6875 487.457031 441.820312 487.828125 441.402344 486.941406 C 439.808594 483.53125 436.976562 481.4375 433.195312 479.492188 Z M 433.195312 479.492188 " fill-opacity="1" fill-rule="nonzero"/><path fill="#391b01" d="M 130.941406 445.746094 C 127.371094 447.5625 124.523438 449.671875 122.878906 453.097656 C 122.316406 454.273438 121.59375 453.789062 121.160156 452.9375 C 119.757812 450.136719 117.601562 448.160156 114.800781 446.789062 C 113.707031 446.257812 113.449219 445.472656 114.753906 444.921875 C 117.746094 443.636719 119.871094 441.527344 121.253906 438.582031 C 121.707031 437.617188 122.460938 437.503906 123.007812 438.550781 C 124.746094 441.800781 127.082031 444.441406 130.941406 445.746094 Z M 130.941406 445.746094 " fill-opacity="1" fill-rule="nonzero"/><path fill="#391b01" d="M 504.726562 484.0625 C 500.976562 485.992188 497.96875 487.714844 496.472656 491.191406 C 495.957031 492.398438 495.199219 491.800781 494.78125 490.949219 C 493.445312 488.230469 491.371094 486.3125 488.648438 485.011719 C 487.28125 484.351562 487.507812 483.5625 488.746094 482.917969 C 491.402344 481.550781 493.574219 479.730469 494.8125 476.914062 C 495.230469 475.964844 496.148438 475.742188 496.648438 476.691406 C 498.355469 479.988281 500.863281 482.4375 504.726562 484.0625 Z M 504.726562 484.0625 " fill-opacity="1" fill-rule="nonzero"/><path fill="#391b01" d="M 481.714844 498.867188 C 478.191406 500.957031 475.117188 502.488281 473.539062 505.753906 C 472.910156 507.058594 472.171875 506.640625 471.65625 505.609375 C 470.320312 503.019531 468.277344 501.183594 465.6875 499.914062 C 464.300781 499.238281 464.382812 498.511719 465.703125 497.882812 C 468.421875 496.597656 470.496094 494.714844 471.703125 491.882812 C 472.347656 490.371094 473.234375 490.835938 473.796875 491.980469 C 475.339844 495.230469 477.949219 497.289062 481.714844 498.867188 Z M 481.714844 498.867188 " fill-opacity="1" fill-rule="nonzero"/><path fill="#391b01" d="M 484.867188 329.765625 C 481.359375 331.726562 478.574219 333.464844 477.046875 336.636719 C 476.46875 337.84375 475.597656 337.488281 475.066406 336.441406 C 473.8125 334.046875 471.976562 332.292969 469.582031 331.066406 C 468.082031 330.3125 467.824219 329.507812 469.546875 328.621094 C 472.105469 327.300781 474.183594 325.5 475.40625 322.8125 C 475.984375 321.542969 476.789062 321.734375 477.320312 322.84375 C 478.800781 326 481.410156 327.960938 484.867188 329.765625 Z M 484.867188 329.765625 " fill-opacity="1" fill-rule="nonzero"/><path fill="#391b01" d="M 487.394531 376.898438 C 485.65625 373.214844 483.53125 370.914062 480.507812 369.496094 C 479.234375 368.902344 479.507812 368.03125 480.554688 367.566406 C 483.386719 366.296875 485.6875 364.523438 486.976562 361.578125 C 487.441406 360.5 488.214844 360.597656 488.683594 361.597656 C 490.164062 364.71875 492.671875 366.777344 496.488281 368.46875 C 492.335938 370.269531 489.535156 372.699219 487.394531 376.898438 Z M 487.394531 376.898438 " fill-opacity="1" fill-rule="nonzero"/><path fill="#391b01" d="M 117.988281 401.007812 C 119.757812 404.773438 121.964844 407.203125 125.199219 408.632812 C 126.5 409.214844 126.082031 410.082031 125.019531 410.515625 C 122.316406 411.628906 120.304688 413.429688 119.019531 416.085938 C 118.40625 417.339844 117.601562 417.4375 116.925781 416.054688 C 115.6875 413.527344 113.753906 411.742188 111.230469 410.535156 C 110.167969 410.019531 109.394531 409.292969 111.019531 408.554688 C 114.15625 407.136719 116.347656 404.804688 117.988281 401.007812 Z M 117.988281 401.007812 " fill-opacity="1" fill-rule="nonzero"/><path fill="#391b01" d="M 122.527344 356.140625 C 124.667969 359.824219 126.628906 363.011719 131.523438 363.960938 C 127.757812 366.117188 124.890625 367.886719 123.203125 370.960938 C 122.640625 371.976562 121.851562 371.671875 121.398438 370.753906 C 120.160156 368.210938 118.164062 366.488281 115.636719 365.28125 C 114.914062 364.941406 114.398438 364.234375 115.476562 363.800781 C 118.875 362.464844 120.789062 359.746094 122.527344 356.140625 Z M 122.527344 356.140625 " fill-opacity="1" fill-rule="nonzero"/><path fill="#391b01" d="M 135.304688 332.886719 C 134.644531 332.902344 134.371094 332.453125 134.160156 332.019531 C 133.003906 329.667969 131.105469 328.105469 128.835938 326.933594 C 127.03125 326 127.449219 325.339844 128.964844 324.582031 C 131.296875 323.441406 132.988281 321.703125 133.9375 319.222656 C 134.59375 317.519531 135.464844 317.90625 136.125 319.207031 C 137.394531 321.6875 139.054688 323.699219 141.726562 324.777344 C 142.480469 325.082031 143.367188 325.660156 142.0625 326.402344 C 139.488281 327.851562 137.203125 329.539062 135.929688 332.324219 C 135.820312 332.582031 135.496094 332.726562 135.304688 332.886719 Z M 135.304688 332.886719 " fill-opacity="1" fill-rule="nonzero"/><path fill="#391b01" d="M 486.863281 448.738281 C 484.464844 448.738281 482.066406 448.738281 479.671875 448.738281 C 478.511719 448.738281 477.480469 448.738281 477.53125 447.046875 C 477.5625 445.4375 478.609375 445.648438 479.589844 445.648438 C 484.386719 445.664062 489.179688 445.695312 493.976562 445.761719 C 494.941406 445.777344 496.050781 445.648438 496.070312 447.191406 C 496.085938 448.6875 495.085938 448.707031 494.058594 448.707031 C 491.660156 448.753906 489.261719 448.738281 486.863281 448.738281 Z M 486.863281 448.738281 " fill-opacity="1" fill-rule="nonzero"/><path fill="#391b01" d="M 154.839844 280.054688 C 152.941406 280.054688 151.042969 280.023438 149.144531 280.070312 C 147.96875 280.101562 147.582031 279.554688 147.582031 278.445312 C 147.582031 277.335938 147.9375 276.789062 149.128906 276.804688 C 152.828125 276.851562 156.515625 276.851562 160.214844 276.851562 C 161.308594 276.851562 161.871094 277.238281 161.839844 278.445312 C 161.824219 279.585938 161.375 280.085938 160.230469 280.054688 C 158.429688 280.023438 156.640625 280.039062 154.839844 280.039062 C 154.839844 280.023438 154.839844 280.039062 154.839844 280.054688 Z M 154.839844 280.054688 " fill-opacity="1" fill-rule="nonzero"/><path fill="#391b01" d="M 468.035156 480.699219 C 465.832031 480.699219 463.640625 480.679688 461.4375 480.699219 C 460.441406 480.699219 460.019531 480.246094 459.988281 479.25 C 459.941406 478.15625 460.503906 477.832031 461.4375 477.832031 C 465.636719 477.847656 469.835938 477.882812 474.039062 477.914062 C 474.890625 477.914062 475.613281 478.058594 475.582031 479.234375 C 475.550781 480.296875 475.277344 480.9375 474.054688 480.90625 C 472.058594 480.859375 470.046875 480.890625 468.050781 480.890625 C 468.035156 480.828125 468.035156 480.761719 468.035156 480.699219 Z M 468.035156 480.699219 " fill-opacity="1" fill-rule="nonzero"/><path fill="#391b01" d="M 471.171875 310.339844 C 469.371094 310.339844 467.570312 310.308594 465.765625 310.355469 C 464.640625 310.390625 464.140625 309.972656 464.171875 308.78125 C 464.1875 307.605469 464.6875 307.21875 465.816406 307.234375 C 469.417969 307.265625 473.023438 307.25 476.628906 307.234375 C 477.835938 307.21875 478.464844 307.636719 478.429688 308.988281 C 478.414062 310.421875 477.449219 310.261719 476.582031 310.277344 C 474.777344 310.308594 472.976562 310.292969 471.171875 310.292969 C 471.171875 310.308594 471.171875 310.324219 471.171875 310.339844 Z M 471.171875 310.339844 " fill-opacity="1" fill-rule="nonzero"/><path fill="#391b01" d="M 493.527344 391.609375 C 492.433594 391.609375 491.335938 391.542969 490.242188 391.625 C 489.132812 391.707031 488.585938 391.398438 488.648438 390.160156 C 488.699219 389.148438 488.84375 388.4375 490.113281 388.46875 C 492.496094 388.519531 494.894531 388.46875 497.292969 388.46875 C 498.210938 388.46875 498.820312 388.746094 498.820312 389.824219 C 498.820312 390.835938 498.644531 391.625 497.421875 391.625 C 496.132812 391.625 494.828125 391.625 493.542969 391.625 C 493.527344 391.625 493.527344 391.625 493.527344 391.609375 Z M 493.527344 391.609375 " fill-opacity="1" fill-rule="nonzero"/><path fill="#391b01" d="M 149.640625 448.996094 C 148.644531 448.304688 146.085938 450.296875 145.925781 447.480469 C 145.746094 444.394531 148.417969 446.339844 149.707031 445.839844 C 150.480469 445.535156 151.476562 445.792969 152.378906 445.746094 C 153.554688 445.679688 154.246094 445.984375 154.230469 447.386719 C 154.210938 448.800781 153.441406 449.027344 152.3125 448.996094 C 151.507812 448.980469 150.71875 448.996094 149.640625 448.996094 Z M 149.640625 448.996094 " fill-opacity="1" fill-rule="nonzero"/><path fill="#391b01" d="M 116.265625 390.351562 C 115.074219 390.351562 113.867188 390.386719 112.675781 390.335938 C 111.742188 390.304688 111.597656 389.644531 111.617188 388.890625 C 111.632812 388.132812 111.742188 387.472656 112.710938 387.457031 C 115.203125 387.425781 117.699219 387.375 120.175781 387.375 C 121.109375 387.375 121.269531 388.085938 121.253906 388.839844 C 121.253906 389.597656 121.046875 390.273438 120.144531 390.304688 C 118.855469 390.351562 117.554688 390.320312 116.265625 390.320312 C 116.265625 390.335938 116.265625 390.351562 116.265625 390.351562 Z M 116.265625 390.351562 " fill-opacity="1" fill-rule="nonzero"/><path fill="#391b01" d="M 128.015625 348.0625 C 126.917969 348.0625 125.808594 348.046875 124.714844 348.0625 C 123.941406 348.078125 123.265625 347.964844 123.332031 346.984375 C 123.378906 346.210938 123.28125 345.246094 124.441406 345.230469 C 126.839844 345.179688 129.238281 345.179688 131.632812 345.214844 C 132.566406 345.230469 132.730469 345.890625 132.710938 346.660156 C 132.710938 347.433594 132.535156 348.0625 131.601562 348.078125 C 130.410156 348.0625 129.203125 348.0625 128.015625 348.0625 Z M 128.015625 348.0625 " fill-opacity="1" fill-rule="nonzero"/><path fill="#391b01" d="M 458.667969 284.207031 C 457.769531 284.207031 456.867188 284.175781 455.964844 284.207031 C 455.03125 284.238281 454.421875 284.011719 454.453125 282.886719 C 454.484375 282.035156 454.46875 281.214844 455.613281 281.179688 C 457.816406 281.132812 460.019531 281.085938 462.210938 281.085938 C 463.304688 281.085938 463.464844 281.824219 463.433594 282.726562 C 463.417969 283.53125 463.160156 284.09375 462.257812 284.109375 C 461.050781 284.109375 459.859375 284.109375 458.652344 284.109375 C 458.667969 284.140625 458.667969 284.175781 458.667969 284.207031 Z M 458.667969 284.207031 " fill-opacity="1" fill-rule="nonzero"/><path fill="#391b01" d="M 483.582031 348.851562 C 484.675781 348.851562 485.769531 348.851562 486.863281 348.851562 C 487.75 348.851562 488.101562 349.316406 488.070312 350.171875 C 488.054688 351.023438 487.957031 351.859375 486.878906 351.875 C 484.59375 351.90625 482.292969 351.890625 480.007812 351.859375 C 479.058594 351.84375 478.914062 351.183594 478.960938 350.425781 C 479.011719 349.71875 479.011719 348.945312 479.992188 348.914062 C 481.183594 348.882812 482.375 348.898438 483.582031 348.898438 C 483.582031 348.882812 483.582031 348.867188 483.582031 348.851562 Z M 483.582031 348.851562 " fill-opacity="1" fill-rule="nonzero"/><path fill="#391b01" d="M 143.027344 309.761719 C 142.046875 309.761719 141.046875 309.746094 140.066406 309.761719 C 139.117188 309.777344 138.617188 309.421875 138.617188 308.378906 C 138.636719 307.316406 138.910156 306.703125 140.117188 306.71875 C 142.09375 306.753906 144.074219 306.71875 146.054688 306.671875 C 147.164062 306.65625 147.664062 307.089844 147.628906 308.25 C 147.582031 309.359375 147.101562 309.875 146.003906 309.859375 C 145.023438 309.84375 144.027344 309.859375 143.042969 309.859375 C 143.027344 309.824219 143.027344 309.792969 143.027344 309.761719 Z M 143.027344 309.761719 " fill-opacity="1" fill-rule="nonzero"/><path fill="#391b01" d="M 134.980469 431.96875 C 133.984375 431.582031 132.164062 432.773438 132.132812 430.488281 C 132.101562 428.058594 133.984375 428.894531 135.160156 428.910156 C 136.238281 428.925781 137.992188 428.140625 138.039062 430.34375 C 138.070312 432.839844 136.15625 431.664062 134.980469 431.96875 Z M 134.980469 431.96875 " fill-opacity="1" fill-rule="nonzero"/><path fill="#391b01" d="M 491.53125 429.507812 C 490.644531 429.039062 488.761719 430.375 488.730469 428.074219 C 488.714844 425.660156 490.644531 426.675781 491.804688 426.515625 C 492.929688 426.367188 494.332031 426.113281 494.265625 428.058594 C 494.203125 430.101562 492.65625 429.28125 491.53125 429.507812 Z M 491.53125 429.507812 " fill-opacity="1" fill-rule="nonzero"/><path fill="#391b01" d="M 121.046875 431.648438 C 119.597656 431.839844 118.777344 431.503906 118.855469 429.78125 C 118.921875 428.21875 119.804688 428.363281 120.851562 428.414062 C 122.140625 428.476562 123.492188 428.21875 123.378906 430.3125 C 123.265625 432.179688 121.964844 431.503906 121.046875 431.648438 Z M 121.046875 431.648438 " fill-opacity="1" fill-rule="nonzero"/><path fill="#391b01" d="M 493.542969 410.871094 C 492.6875 410.46875 491.015625 411.628906 490.96875 409.472656 C 490.917969 407.058594 492.6875 407.847656 493.914062 407.765625 C 495.121094 407.667969 496.421875 407.574219 496.277344 409.472656 C 496.117188 411.386719 494.699219 410.792969 493.542969 410.871094 Z M 493.542969 410.871094 " fill-opacity="1" fill-rule="nonzero"/><path fill="#391b01" d="M 414.558594 486.859375 C 415.605469 486.878906 416.507812 486.925781 416.492188 488.421875 C 416.472656 490.097656 415.445312 490.015625 414.300781 490.046875 C 413.144531 490.078125 412.46875 489.871094 412.402344 488.453125 C 412.324219 486.667969 413.496094 486.925781 414.558594 486.859375 Z M 414.558594 486.859375 " fill-opacity="1" fill-rule="nonzero"/><path fill="#391b01" d="M 287.074219 561.644531 C 287.121094 563.542969 286.109375 563.011719 285.269531 562.769531 C 272.542969 559.328125 259.8125 555.898438 247.097656 552.4375 C 245.457031 551.988281 243.847656 551.472656 242.191406 551.054688 C 241.082031 550.78125 240.726562 550.039062 240.9375 549.058594 C 241.242188 547.644531 242.238281 548.558594 242.820312 548.707031 C 256.898438 552.503906 270.964844 556.347656 285.011719 560.179688 C 285.929688 560.453125 287.105469 560.46875 287.074219 561.644531 Z M 287.074219 561.644531 " fill-opacity="1" fill-rule="nonzero"/><path fill="#391b01" d="M 332.292969 574.148438 C 332.261719 575.128906 331.746094 575.210938 330.878906 575.03125 C 325.085938 573.859375 319.484375 572.054688 313.820312 570.398438 C 312.917969 570.140625 312.5 569.464844 312.726562 568.5625 C 313.0625 567.179688 313.980469 568.015625 314.625 568.195312 C 319.933594 569.59375 325.230469 571.042969 330.539062 572.457031 C 331.472656 572.714844 332.308594 572.972656 332.292969 574.148438 Z M 332.292969 574.148438 " fill-opacity="1" fill-rule="nonzero"/><path fill="#391b01" d="M 306.128906 566.824219 C 306.207031 568.339844 305.613281 568.289062 304.808594 568.066406 C 301.636719 567.179688 298.46875 566.292969 295.265625 565.472656 C 294.1875 565.199219 293.671875 564.605469 293.945312 563.542969 C 294.265625 562.269531 295.234375 562.964844 295.890625 563.125 C 298.804688 563.832031 301.6875 564.636719 304.597656 565.359375 C 305.613281 565.601562 306.144531 566.183594 306.128906 566.824219 Z M 306.128906 566.824219 " fill-opacity="1" fill-rule="nonzero"/><path fill="#391b01" d="M 246.457031 321.105469 C 246.421875 324.324219 244.316406 326.578125 241.339844 326.5625 C 238.652344 326.546875 236.445312 324.308594 236.414062 321.558594 C 236.367188 318.417969 238.617188 315.925781 241.433594 315.988281 C 244.507812 316.054688 246.488281 318.066406 246.457031 321.105469 Z M 246.457031 321.105469 " fill-opacity="1" fill-rule="nonzero"/><path fill="#391b01" d="M 364.867188 321.363281 C 364.882812 318.144531 366.925781 316.085938 370.0625 316.132812 C 373.183594 316.183594 375.195312 318.289062 375.179688 321.507812 C 375.164062 324.375 372.800781 326.578125 369.710938 326.609375 C 366.828125 326.644531 364.832031 324.484375 364.867188 321.363281 Z M 364.867188 321.363281 " fill-opacity="1" fill-rule="nonzero"/><path fill="#391b01" d="M 286.445312 499.785156 C 286.316406 501.472656 285.191406 502.550781 283.195312 502.601562 C 281.183594 502.648438 279.785156 500.84375 279.945312 498.449219 C 280.058594 496.597656 280.683594 495.050781 282.875 495.003906 C 284.691406 494.941406 286.527344 497.304688 286.445312 499.785156 Z M 286.445312 499.785156 " fill-opacity="1" fill-rule="nonzero"/><g clip-path="url(#1f9469a097)"><path fill="#623d1c" d="M 497.375 691.519531 L 104.644531 691.519531 C 102.964844 691.515625 101.289062 691.472656 99.609375 691.390625 C 97.933594 691.304688 96.261719 691.179688 94.589844 691.011719 C 92.917969 690.847656 91.25 690.640625 89.589844 690.390625 C 87.929688 690.144531 86.277344 689.855469 84.628906 689.527344 C 82.984375 689.195312 81.34375 688.828125 79.714844 688.417969 C 78.085938 688.007812 76.46875 687.558594 74.863281 687.070312 C 73.257812 686.582031 71.664062 686.054688 70.082031 685.488281 C 68.5 684.921875 66.9375 684.316406 65.382812 683.671875 C 63.832031 683.027344 62.300781 682.347656 60.78125 681.628906 C 59.265625 680.910156 57.765625 680.15625 56.285156 679.363281 C 54.804688 678.570312 53.34375 677.742188 51.902344 676.878906 C 50.460938 676.015625 49.042969 675.117188 47.648438 674.183594 C 46.253906 673.25 44.878906 672.28125 43.53125 671.28125 C 42.183594 670.28125 40.859375 669.246094 39.5625 668.179688 C 38.265625 667.117188 36.992188 666.019531 35.75 664.890625 C 34.503906 663.761719 33.289062 662.605469 32.101562 661.417969 C 30.914062 660.230469 29.757812 659.015625 28.628906 657.769531 C 27.5 656.527344 26.402344 655.253906 25.339844 653.957031 C 24.273438 652.660156 23.238281 651.335938 22.238281 649.988281 C 21.238281 648.640625 20.269531 647.265625 19.335938 645.871094 C 18.402344 644.476562 17.503906 643.058594 16.640625 641.617188 C 15.777344 640.175781 14.949219 638.714844 14.15625 637.234375 C 13.363281 635.753906 12.609375 634.257812 11.890625 632.738281 C 11.171875 631.21875 10.492188 629.6875 9.847656 628.136719 C 9.203125 626.582031 8.597656 625.019531 8.03125 623.4375 C 7.464844 621.855469 6.9375 620.261719 6.449219 618.65625 C 5.960938 617.050781 5.511719 615.433594 5.101562 613.804688 C 4.691406 612.175781 4.324219 610.535156 3.992188 608.890625 C 3.664062 607.242188 3.375 605.589844 3.128906 603.929688 C 2.878906 602.269531 2.671875 600.601562 2.507812 598.929688 C 2.339844 597.261719 2.214844 595.585938 2.128906 593.910156 C 2.046875 592.230469 2.003906 590.554688 2 588.875 L 2 313.570312 C 1.992188 310.335938 2.140625 307.105469 2.449219 303.886719 C 2.753906 300.667969 3.210938 297.46875 3.828125 294.292969 C 4.441406 291.117188 5.207031 287.976562 6.125 284.875 C 7.042969 281.773438 8.109375 278.722656 9.320312 275.726562 C 10.535156 272.726562 11.886719 269.792969 13.386719 266.925781 C 14.882812 264.058594 16.511719 261.269531 18.277344 258.558594 C 20.042969 255.847656 21.9375 253.230469 23.957031 250.703125 C 25.976562 248.175781 28.113281 245.75 30.367188 243.429688 L 240.460938 26.160156 C 241.4375 25.144531 242.4375 24.15625 243.464844 23.191406 C 244.492188 22.226562 245.542969 21.285156 246.613281 20.375 C 247.6875 19.460938 248.785156 18.578125 249.902344 17.71875 C 251.019531 16.863281 252.160156 16.035156 253.320312 15.234375 C 254.480469 14.433594 255.660156 13.664062 256.859375 12.921875 C 258.058594 12.183594 259.273438 11.472656 260.507812 10.792969 C 261.742188 10.113281 262.992188 9.464844 264.261719 8.847656 C 265.527344 8.234375 266.808594 7.648438 268.105469 7.097656 C 269.402344 6.546875 270.710938 6.027344 272.035156 5.539062 C 273.359375 5.054688 274.691406 4.601562 276.035156 4.183594 C 277.382812 3.765625 278.738281 3.378906 280.101562 3.027344 C 281.464844 2.675781 282.839844 2.363281 284.21875 2.078125 C 285.601562 1.796875 286.988281 1.550781 288.378906 1.339844 C 289.773438 1.128906 291.171875 0.949219 292.574219 0.808594 C 293.976562 0.667969 295.378906 0.5625 296.785156 0.492188 C 298.195312 0.421875 299.601562 0.382812 301.011719 0.382812 C 302.421875 0.382812 303.828125 0.421875 305.234375 0.492188 C 306.644531 0.5625 308.046875 0.667969 309.449219 0.808594 C 310.851562 0.949219 312.25 1.128906 313.640625 1.339844 C 315.035156 1.550781 316.421875 1.796875 317.804688 2.078125 C 319.183594 2.363281 320.554688 2.675781 321.921875 3.027344 C 323.285156 3.378906 324.640625 3.765625 325.984375 4.183594 C 327.332031 4.601562 328.664062 5.054688 329.988281 5.539062 C 331.3125 6.027344 332.621094 6.546875 333.917969 7.097656 C 335.214844 7.648438 336.496094 8.234375 337.761719 8.847656 C 339.027344 9.464844 340.28125 10.113281 341.515625 10.792969 C 342.75 11.472656 343.964844 12.183594 345.164062 12.921875 C 346.363281 13.664062 347.542969 14.433594 348.703125 15.234375 C 349.863281 16.035156 351 16.863281 352.121094 17.71875 C 353.238281 18.578125 354.335938 19.460938 355.40625 20.375 C 356.480469 21.285156 357.53125 22.226562 358.558594 23.191406 C 359.585938 24.15625 360.585938 25.144531 361.5625 26.160156 L 591.238281 263.675781 C 591.957031 264.410156 592.636719 265.175781 593.277344 265.976562 C 593.917969 266.78125 594.515625 267.609375 595.078125 268.46875 C 595.636719 269.332031 596.152344 270.214844 596.625 271.128906 C 597.09375 272.039062 597.519531 272.972656 597.902344 273.925781 C 598.28125 274.878906 598.613281 275.847656 598.898438 276.832031 C 599.183594 277.820312 599.417969 278.816406 599.605469 279.824219 C 599.789062 280.835938 599.925781 281.851562 600.011719 282.875 C 600.097656 283.894531 600.132812 284.921875 600.121094 285.945312 C 600.105469 286.972656 600.039062 287.996094 599.925781 289.015625 C 599.808594 290.035156 599.644531 291.046875 599.425781 292.050781 C 599.210938 293.050781 598.949219 294.042969 598.636719 295.019531 C 598.324219 295.996094 597.960938 296.957031 597.554688 297.898438 C 597.148438 298.839844 596.695312 299.761719 596.195312 300.65625 C 595.699219 301.554688 595.15625 302.425781 594.574219 303.269531 C 593.988281 304.113281 593.367188 304.925781 592.703125 305.707031 C 592.039062 306.492188 591.335938 307.238281 590.597656 307.953125 C 589.863281 308.664062 589.089844 309.339844 588.285156 309.976562 C 587.484375 310.617188 586.648438 311.210938 585.785156 311.765625 C 584.921875 312.324219 584.035156 312.832031 583.121094 313.300781 C 582.207031 313.769531 581.273438 314.191406 580.320312 314.566406 C 579.363281 314.941406 578.394531 315.269531 577.40625 315.550781 C 576.417969 315.828125 575.417969 316.0625 574.410156 316.242188 C 573.398438 316.421875 572.382812 316.554688 571.359375 316.636719 C 570.335938 316.71875 569.3125 316.75 568.285156 316.730469 C 567.261719 316.710938 566.238281 316.640625 565.21875 316.519531 C 564.199219 316.398438 563.191406 316.230469 562.1875 316.007812 C 561.183594 315.789062 560.195312 315.519531 559.21875 315.203125 C 558.242188 314.886719 557.285156 314.519531 556.347656 314.109375 C 555.40625 313.695312 554.488281 313.238281 553.59375 312.738281 C 552.699219 312.234375 551.832031 311.691406 550.988281 311.101562 C 550.148438 310.515625 549.339844 309.886719 548.558594 309.21875 C 547.78125 308.550781 547.035156 307.847656 546.324219 307.105469 L 316.632812 69.683594 C 316.132812 69.152344 315.605469 68.644531 315.054688 68.167969 C 314.503906 67.6875 313.929688 67.238281 313.332031 66.820312 C 312.734375 66.398438 312.117188 66.011719 311.480469 65.65625 C 310.84375 65.296875 310.191406 64.972656 309.523438 64.683594 C 308.851562 64.394531 308.167969 64.140625 307.472656 63.917969 C 306.777344 63.699219 306.070312 63.515625 305.355469 63.367188 C 304.640625 63.21875 303.921875 63.105469 303.195312 63.03125 C 302.46875 62.957031 301.742188 62.921875 301.011719 62.921875 C 300.28125 62.921875 299.554688 62.957031 298.828125 63.03125 C 298.101562 63.105469 297.378906 63.21875 296.664062 63.367188 C 295.949219 63.515625 295.246094 63.699219 294.550781 63.917969 C 293.855469 64.140625 293.171875 64.394531 292.5 64.683594 C 291.832031 64.972656 291.179688 65.296875 290.539062 65.65625 C 289.902344 66.011719 289.289062 66.398438 288.691406 66.820312 C 288.09375 67.238281 287.519531 67.6875 286.96875 68.167969 C 286.417969 68.644531 285.890625 69.152344 285.390625 69.683594 L 75.28125 286.863281 C 73.566406 288.644531 72.035156 290.570312 70.695312 292.648438 C 69.351562 294.722656 68.222656 296.910156 67.304688 299.203125 C 66.386719 301.5 65.695312 303.859375 65.238281 306.289062 C 64.777344 308.71875 64.554688 311.167969 64.570312 313.640625 L 64.570312 588.875 C 64.570312 590.1875 64.636719 591.5 64.769531 592.808594 C 64.898438 594.117188 65.09375 595.417969 65.351562 596.707031 C 65.609375 597.996094 65.929688 599.269531 66.3125 600.527344 C 66.695312 601.785156 67.136719 603.023438 67.640625 604.234375 C 68.144531 605.449219 68.707031 606.636719 69.328125 607.796875 C 69.949219 608.957031 70.625 610.082031 71.355469 611.175781 C 72.085938 612.269531 72.867188 613.324219 73.703125 614.339844 C 74.539062 615.355469 75.417969 616.328125 76.347656 617.257812 C 77.28125 618.1875 78.253906 619.070312 79.269531 619.90625 C 80.285156 620.738281 81.339844 621.523438 82.433594 622.253906 C 83.527344 622.984375 84.652344 623.660156 85.8125 624.28125 C 86.972656 624.902344 88.160156 625.464844 89.371094 625.96875 C 90.585938 626.472656 91.824219 626.914062 93.082031 627.296875 C 94.339844 627.679688 95.613281 628 96.902344 628.257812 C 98.191406 628.515625 99.492188 628.710938 100.800781 628.839844 C 102.109375 628.972656 103.421875 629.039062 104.734375 629.039062 L 497.464844 629.039062 C 498.488281 629.039062 499.511719 629.089844 500.527344 629.191406 C 501.546875 629.289062 502.558594 629.441406 503.5625 629.640625 C 504.5625 629.839844 505.554688 630.085938 506.535156 630.382812 C 507.515625 630.679688 508.476562 631.027344 509.421875 631.417969 C 510.367188 631.808594 511.289062 632.246094 512.191406 632.726562 C 513.09375 633.210938 513.972656 633.734375 514.820312 634.304688 C 515.671875 634.871094 516.492188 635.480469 517.285156 636.128906 C 518.074219 636.78125 518.832031 637.464844 519.554688 638.1875 C 520.28125 638.914062 520.964844 639.667969 521.613281 640.460938 C 522.265625 641.25 522.871094 642.074219 523.441406 642.921875 C 524.007812 643.773438 524.535156 644.652344 525.015625 645.554688 C 525.5 646.457031 525.9375 647.378906 526.328125 648.324219 C 526.71875 649.269531 527.0625 650.230469 527.359375 651.210938 C 527.65625 652.191406 527.90625 653.179688 528.105469 654.183594 C 528.304688 655.1875 528.457031 656.199219 528.554688 657.21875 C 528.65625 658.234375 528.707031 659.257812 528.707031 660.277344 C 528.707031 661.300781 528.65625 662.324219 528.554688 663.339844 C 528.457031 664.359375 528.304688 665.371094 528.105469 666.375 C 527.90625 667.378906 527.65625 668.367188 527.359375 669.347656 C 527.0625 670.328125 526.71875 671.289062 526.328125 672.234375 C 525.9375 673.179688 525.5 674.101562 525.015625 675.003906 C 524.535156 675.90625 524.007812 676.785156 523.441406 677.636719 C 522.871094 678.484375 522.265625 679.308594 521.613281 680.097656 C 520.964844 680.886719 520.28125 681.644531 519.554688 682.367188 C 518.832031 683.09375 518.074219 683.777344 517.285156 684.429688 C 516.492188 685.078125 515.671875 685.6875 514.820312 686.253906 C 513.972656 686.824219 513.09375 687.347656 512.191406 687.832031 C 511.289062 688.3125 510.367188 688.75 509.421875 689.140625 C 508.476562 689.53125 507.511719 689.875 506.535156 690.175781 C 505.554688 690.472656 504.5625 690.71875 503.5625 690.917969 C 502.558594 691.117188 501.546875 691.269531 500.527344 691.367188 C 499.511719 691.46875 498.488281 691.519531 497.464844 691.519531 Z M 497.375 691.519531 " fill-opacity="1" fill-rule="nonzero"/></g></g></g></svg>